<?xml version="1.0" encoding="utf-8"?>
<!-- Generator: Adobe Illustrator 25.2.1, SVG Export Plug-In . SVG Version: 6.00 Build 0)  -->
<svg version="1.1" xmlns="http://www.w3.org/2000/svg" xmlns:xlink="http://www.w3.org/1999/xlink" x="0px" y="0px"
	 viewBox="0 0 1000 600" style="enable-background:new 0 0 1000 600;" xml:space="preserve">
<style type="text/css">
	.st0{fill-rule:evenodd;clip-rule:evenodd;fill:#FFFFFF;}
	.st1{display:none;}
	.st2{display:inline;}
	.st3{display:inline;clip-path:url(#SVGID_2_);}
	.st4{fill:#FFFFFF;}
</style>
<g id="Layer_2">
</g>
<g id="Layer_1">
	<g>
		<path class="st0" d="M304.4,371.1c-19.4,15.6-44.1,24.9-70.9,24.9C170.8,396,120,345.2,120,282.5c0-39.5,20.2-74.3,50.8-94.6
			c3.3,44.1,13.3,85.5,30.4,118.7C227.7,358.3,265.7,379.5,304.4,371.1L304.4,371.1z"/>
		<path class="st0" d="M233.5,169c62.7,0,113.5,50.8,113.5,113.5c0,20.5-5.5,39.8-15,56.4c-47.8,16-95.9-6.3-127.3-67.7
			c-13.1-25.6-22-55.5-27-87.6C194.2,174.4,213.2,169,233.5,169L233.5,169z"/>
		<g class="st1">
			<defs>
				<path id="SVGID_1_" d="M330.4,337.1c9.4-16.7,14.3-35.4,14.3-54.6c0-61.4-49.8-111.2-111.2-111.2c-18.7,0-37,4.6-53.3,13.6
					c4.6,29.3,12.9,58.9,26.5,85.4c17.4,34,45.7,66.2,85.8,70.9C305.2,342.7,318.2,341.1,330.4,337.1L330.4,337.1z"/>
			</defs>
			<use xlink:href="#SVGID_1_"  style="display:inline;overflow:visible;fill-rule:evenodd;clip-rule:evenodd;fill:#FFFFFF;"/>
			<clipPath id="SVGID_2_" class="st2">
				<use xlink:href="#SVGID_1_"  style="overflow:visible;"/>
			</clipPath>
			<g class="st3">
				<defs>
					<rect id="SVGID_3_" x="180.1" y="171.3" width="164.6" height="171.4"/>
				</defs>
				<use xlink:href="#SVGID_3_"  style="overflow:visible;fill:#FFFFFF;"/>
				<clipPath id="SVGID_4_">
					<use xlink:href="#SVGID_3_"  style="overflow:visible;"/>
				</clipPath>
				<g style="clip-path:url(#SVGID_4_);">
					
						<image style="overflow:visible;" width="348" height="361" xlink:href="6C8365FC.png"  transform="matrix(0.48 0 0 -0.48 179.1201 344.0127)">
					</image>
				</g>
			</g>
		</g>
		<polygon class="st4" points="678.6,153 678.6,178.8 704.4,178.8 704.4,153 678.6,153 		"/>
		<path class="st0" d="M758.8,376.9V247.3c0-1.6,0.1-3.6,0.2-6.2c0.1-2.6,0.7-5,1.7-7.2c1-2.2,2.6-4.2,4.9-5.9
			c2.2-1.7,5.4-2.5,9.4-2.5c4,0,7.2,0.8,9.4,2.3c2.2,1.6,3.9,3.4,4.9,5.5c1,2.1,1.6,4.5,1.8,7c0.2,2.6,0.3,4.9,0.3,6.9v129.6h25.8
			V247.3c0-7.2-0.7-13.4-2-18.6c-1.3-5.3-4.5-10.8-9.4-16.6c-3.8-4.5-8.6-7.7-14.4-9.6c-5.8-1.9-11.3-2.9-16.4-2.9
			c-5.9,0-11.2,0.9-16,2.7v-3.2h-25.8c0,59.2-0.1,118.5-0.1,177.7H758.8L758.8,376.9z M611.1,422.2V448c5.6,0,11-1.1,16.1-3.2
			c5.1-2.1,9.7-5,13.6-8.7c3.9-3.7,7-8.1,9.2-13.1c2.2-5,3.4-10.5,3.4-16.3V240.9c0-4.7-0.8-9.5-2.5-14.3c-1.7-4.8-4.3-9.2-7.7-13.3
			c-3.5-4-7.9-7.3-13.3-9.9c-5.4-2.6-11.7-3.9-19.1-3.9c-5.1,0-10.2,0.8-15.3,2.5c-5,1.7-9.6,4.3-13.6,7.7c-4,3.5-7.3,7.8-9.7,12.9
			c-2.5,5.1-3.7,11.2-3.7,18.1v97.7c0,7.2,1.3,13.4,3.9,18.6c2.6,5.3,5.9,9.6,9.9,12.9c4,3.4,8.6,5.8,13.8,7.4
			c5.1,1.6,10.3,2.3,15.4,2.3c4.3,0,9.6-1,16.1-3v29.9c0,3.8-1.3,7.3-3.9,10.6C621.1,420.5,616.9,422.2,611.1,422.2L611.1,422.2z
			 M594.3,247.3c0-1.8,0.1-3.9,0.3-6.4c0.2-2.5,0.8-4.9,1.8-7.2c1-2.3,2.6-4.3,4.9-5.9c2.2-1.6,5.5-2.3,9.7-2.3c4,0,7.2,0.8,9.4,2.3
			c2.2,1.6,3.9,3.5,4.9,5.7c1,2.2,1.6,4.6,1.8,7.2c0.2,2.6,0.3,4.8,0.3,6.5v84.2c0,1.8-0.1,4-0.3,6.5c-0.2,2.6-0.8,5-1.8,7.2
			c-1,2.2-2.6,4.1-4.7,5.7c-2.1,1.6-5.2,2.3-9.2,2.3c-4.3,0-7.6-0.7-9.9-2.2c-2.3-1.5-4-3.3-5-5.5c-1-2.2-1.6-4.6-1.8-7.2
			c-0.2-2.6-0.3-4.9-0.3-6.9V247.3L594.3,247.3z M452.7,351h-28.9c-3.8,0-6.7-0.3-8.7-0.8c-2-0.6-3.5-1.5-4.4-2.9
			c-0.9-1.3-1.5-3.2-1.7-5.7c-0.2-2.5-0.3-5.6-0.3-9.4V199.1h-26.2v133.1c0,6.7,0.7,12.8,2,18.3c1.3,5.5,3.6,10.2,6.9,14.1
			c3.2,3.9,7.5,6.9,12.8,9.1c5.3,2.1,11.8,3.2,19.6,3.2h28.9V351L452.7,351z M465.8,338.6c0,7.2,1.3,13.4,3.9,18.6
			c2.6,5.3,5.9,9.6,9.9,12.9c4,3.4,8.6,5.8,13.8,7.4c5.1,1.6,10.3,2.3,15.4,2.3c2.9,0,6.7-0.5,11.4-1.5c4.7-1,9.3-3,13.9-6
			c4.6-3,8.5-7.2,11.7-12.6c3.2-5.4,4.9-12.4,4.9-21.1v-97.7c0-4.7-0.8-9.5-2.5-14.3c-1.7-4.8-4.3-9.2-7.7-13.3
			c-3.5-4-7.9-7.3-13.3-9.9c-5.4-2.6-11.7-3.9-19.1-3.9c-5.1,0-10.2,0.8-15.3,2.5c-5,1.7-9.6,4.3-13.6,7.7c-4,3.5-7.3,7.8-9.7,12.9
			c-2.5,5.1-3.7,11.2-3.7,18.1V338.6L465.8,338.6z M491.6,247.3c0-1.8,0.1-3.9,0.3-6.4c0.2-2.5,0.8-4.9,1.8-7.2
			c1-2.3,2.6-4.3,4.9-5.9c2.2-1.6,5.5-2.3,9.7-2.3c4,0,7.2,0.8,9.4,2.3c2.2,1.6,3.9,3.5,4.9,5.7c1,2.2,1.6,4.6,1.8,7.2
			c0.2,2.6,0.3,4.8,0.3,6.5v84.2c0,1.8-0.1,4-0.3,6.5c-0.2,2.6-0.8,5-1.8,7.2c-1,2.2-2.6,4.1-4.7,5.7c-2.1,1.6-5.2,2.3-9.2,2.3
			c-4.3,0-7.6-0.7-9.9-2.2c-2.4-1.5-4-3.3-5-5.5c-1-2.2-1.6-4.6-1.8-7.2c-0.2-2.6-0.3-4.9-0.3-6.9V247.3L491.6,247.3z M678.6,199.1
			v177.7h25.8V199.1H678.6L678.6,199.1z"/>
		<path class="st4" d="M681.5,399.9v-4.3h3.9v4.3H681.5L681.5,399.9z M681.5,429.2v-23.4h3.9v23.4H681.5L681.5,429.2z M703.9,429.2
			v-14.9c0-2.3-0.3-3.8-0.9-4.7c-0.6-0.8-1.6-1.3-3-1.3c-1.6,0-2.8,0.6-3.5,1.8c-0.7,1.2-1.1,3-1.1,5.6v13.5h-4v-19.7
			c0-0.5,0-1.1-0.1-1.7c0-0.6-0.1-1.3-0.2-2h4.1l0.2,2.7c0.8-1.1,1.7-2,2.7-2.5c1-0.5,2.1-0.8,3.5-0.8c1.9,0,3.4,0.6,4.6,1.7
			c1.1,1.1,1.7,2.7,1.7,4.6v17.6H703.9L703.9,429.2z M714.3,401.8v-1.5c0-1.1,0.1-1.9,0.4-2.5c0.3-0.6,0.7-1,1.2-1.5
			c0.6-0.4,1.4-0.7,2.3-0.9c0.9-0.2,2-0.3,3.4-0.3h1v3.2c-1.8,0-2.9,0.3-3.5,0.8c-0.6,0.5-0.9,1.8-0.9,3.9v2.8h4.4v2.9h-4.4v20.5h-4
			v-20.5H711v-2.9h3.3V401.8L714.3,401.8z M725.3,417.4c0-4.3,0.7-7.3,2.1-9.3c1.4-1.9,3.6-2.9,6.7-2.9c3.1,0,5.3,1,6.7,2.9
			c1.4,1.9,2.1,5,2.1,9.3c0,4.3-0.7,7.4-2.1,9.4c-1.4,1.9-3.6,2.9-6.7,2.9c-3.1,0-5.3-1-6.7-2.9C726,424.9,725.3,421.8,725.3,417.4
			L725.3,417.4z M734.1,408.7c-1.7,0-2.9,0.7-3.6,2c-0.7,1.4-1.1,3.6-1.1,6.8c0,3.2,0.4,5.5,1.1,6.8c0.7,1.3,1.9,2,3.6,2
			c1.7,0,2.9-0.7,3.6-2c0.7-1.4,1.1-3.6,1.1-6.8c0-3.2-0.4-5.5-1.1-6.8C737,409.4,735.8,408.7,734.1,408.7L734.1,408.7z
			 M751.6,405.8l0.4,3.1c0.4-1.2,1.1-2.1,2.1-2.7c1-0.6,2.2-0.9,3.7-0.9c0.1,0,0.2,0,0.4,0c0.2,0,0.3,0,0.4,0v4.1
			c-0.1,0-0.3,0-0.5,0c-0.2,0-0.4,0-0.5,0c-2,0-3.4,0.4-4.3,1.3c-0.9,0.9-1.3,2.3-1.3,4.4v14.2h-4v-19.5c0-0.2-0.1-1.1-0.2-2.7
			c-0.1-0.5-0.1-1-0.1-1.3H751.6L751.6,405.8z M766,408.5c0.8-1.1,1.7-2,2.7-2.5c1-0.5,2.1-0.8,3.5-0.8c1.5,0,2.7,0.3,3.8,1
			c1,0.7,1.8,1.7,2.2,2.9c0.7-1.3,1.6-2.3,2.6-2.9c1.1-0.7,2.4-1,3.8-1c1.9,0,3.4,0.6,4.5,1.7c1.1,1.1,1.6,2.7,1.6,4.6v17.6h-4
			v-14.9c0-2.3-0.3-3.8-0.9-4.7c-0.6-0.8-1.6-1.3-3-1.3c-1.6,0-2.7,0.6-3.4,1.8c-0.7,1.2-1.1,3-1.1,5.6v13.5h-4v-14.9
			c0-2.3-0.3-3.8-0.9-4.7c-0.6-0.8-1.6-1.3-3-1.3c-1.6,0-2.8,0.6-3.5,1.8c-0.7,1.2-1.1,3-1.1,5.6v13.5h-4v-19.7c0-0.5,0-1.1-0.1-1.7
			c0-0.6-0.1-1.3-0.2-2h4.1L766,408.5L766,408.5z M800.4,411.9h-4.3v-0.5c0-2,0.7-3.6,2.1-4.6c1.4-1.1,3.5-1.6,6.2-1.6
			c2.7,0,4.7,0.6,6,1.6c1.3,1.1,1.9,2.8,1.9,5.2v10.9c0,1.1,0,2.1,0.1,3.2c0.1,1,0.2,2.1,0.3,3.1h-4l-0.3-2.9
			c-0.8,1-1.7,1.8-2.8,2.3c-1,0.5-2.1,0.8-3.3,0.8c-2,0-3.6-0.7-4.8-2c-1.2-1.3-1.9-3-1.9-5.2c0-2.7,0.9-4.7,2.6-6.1
			c1.7-1.4,4.3-2,7.8-2h2.2V413c0-1.8-0.3-3.1-0.8-3.8c-0.5-0.7-1.5-1-2.8-1c-1.4,0-2.5,0.3-3.2,0.9c-0.7,0.6-1.1,1.5-1.1,2.6V411.9
			L800.4,411.9z M808.3,416.9c-3.2,0-5.5,0.4-6.8,1.1c-1.3,0.8-1.9,2-1.9,3.8c0,1.2,0.3,2.1,1,2.9c0.7,0.8,1.6,1.1,2.6,1.1
			c1.6,0,2.8-0.6,3.7-1.9c0.9-1.2,1.3-3,1.3-5.3V416.9L808.3,416.9z M801.6,402.7l4.6-7.9h4.6l-6.5,7.9H801.6L801.6,402.7z
			 M823.2,399.2v6.6h4.7v2.9h-4.7v14c0,1.3,0.2,2.1,0.6,2.6c0.4,0.5,1.1,0.7,2.1,0.7c0.4,0,1,0,1.8-0.1h0.1l0,3
			c-0.6,0.1-1.2,0.2-1.8,0.3c-0.5,0.1-1.1,0.1-1.5,0.1c-2,0-3.4-0.4-4.2-1.2c-0.8-0.8-1.2-2.1-1.2-4.1v-15.4h-3.5v-2.9h3.5v-4.7
			L823.2,399.2L823.2,399.2z M832,399.9v-4.3h3.9v4.3H832L832,399.9z M832,429.2v-23.4h3.9v23.4H832L832,429.2z M854.5,421.3h4
			c0,2.7-0.8,4.8-2.3,6.2c-1.5,1.5-3.5,2.2-6.1,2.2c-3.1,0-5.3-1-6.7-2.9c-1.4-1.9-2.1-5-2.1-9.3c0-4.3,0.7-7.4,2.1-9.4
			c1.4-1.9,3.6-2.9,6.7-2.9c2.5,0,4.5,0.7,6,2c1.5,1.3,2.3,3.1,2.3,5.2v0.5h-4c0-1.4-0.4-2.4-1.1-3.2c-0.7-0.8-1.7-1.1-3-1.1
			c-1.8,0-3,0.7-3.8,2c-0.7,1.3-1.1,3.6-1.1,6.9c0,3.2,0.4,5.5,1.1,6.8c0.7,1.3,1.9,2,3.6,2c1.3,0,2.3-0.5,3.1-1.4
			C854.1,424,854.5,422.8,854.5,421.3L854.5,421.3z M867.3,411.9H863v-0.5c0-2,0.7-3.6,2.1-4.6c1.4-1.1,3.5-1.6,6.2-1.6
			c2.7,0,4.7,0.6,6,1.6c1.3,1.1,1.9,2.8,1.9,5.2v10.9c0,1.1,0,2.1,0.1,3.2c0.1,1,0.2,2.1,0.3,3.1h-4l-0.3-2.9
			c-0.8,1-1.7,1.8-2.8,2.3c-1,0.5-2.1,0.8-3.3,0.8c-2,0-3.6-0.7-4.8-2c-1.2-1.3-1.9-3-1.9-5.2c0-2.7,0.9-4.7,2.6-6.1
			c1.7-1.4,4.3-2,7.8-2h2.2V413c0-1.8-0.3-3.1-0.8-3.8c-0.5-0.7-1.5-1-2.8-1c-1.4,0-2.5,0.3-3.2,0.9c-0.7,0.6-1.1,1.5-1.1,2.6V411.9
			L867.3,411.9z M875.2,416.9c-3.2,0-5.5,0.4-6.8,1.1c-1.3,0.8-1.9,2-1.9,3.8c0,1.2,0.3,2.1,1,2.9c0.7,0.8,1.6,1.1,2.6,1.1
			c1.6,0,2.8-0.6,3.7-1.9c0.9-1.2,1.3-3,1.3-5.3V416.9L875.2,416.9z"/>
		<path class="st4" d="M827,194.4c2,0,4,0.5,5.9,1.6c1.9,1,3.4,2.5,4.5,4.5c1.1,1.9,1.6,3.9,1.6,6c0,2.1-0.5,4.1-1.6,6
			c-1.1,1.9-2.5,3.4-4.5,4.5c-1.9,1.1-3.9,1.6-6,1.6c-2.1,0-4.1-0.5-6-1.6c-1.9-1.1-3.4-2.5-4.5-4.5c-1.1-1.9-1.6-3.9-1.6-6
			c0-2.1,0.5-4.1,1.6-6c1.1-1.9,2.6-3.4,4.5-4.5C823,195,824.9,194.4,827,194.4L827,194.4z M827,196.4c-1.7,0-3.3,0.4-4.9,1.3
			c-1.6,0.9-2.9,2.1-3.8,3.7c-0.9,1.6-1.4,3.3-1.4,5c0,1.7,0.4,3.4,1.3,5c0.9,1.6,2.1,2.8,3.7,3.7s3.3,1.3,5,1.3
			c1.7,0,3.4-0.4,5-1.3c1.6-0.9,2.8-2.1,3.7-3.7c0.9-1.6,1.3-3.3,1.3-5c0-1.7-0.4-3.4-1.3-5c-0.9-1.6-2.2-2.9-3.8-3.7
			C830.3,196.9,828.6,196.4,827,196.4L827,196.4z M821.7,213.1v-13h4.5c1.5,0,2.6,0.1,3.3,0.4c0.7,0.2,1.2,0.7,1.6,1.3
			c0.4,0.6,0.6,1.2,0.6,1.9c0,0.9-0.3,1.8-1,2.5c-0.7,0.7-1.6,1.1-2.7,1.2c0.5,0.2,0.8,0.4,1.1,0.7c0.5,0.5,1.2,1.4,1.9,2.6l1.6,2.5
			H830l-1.1-2c-0.9-1.6-1.6-2.6-2.2-3c-0.4-0.3-0.9-0.4-1.7-0.4h-1.2v5.5H821.7L821.7,213.1z M823.8,205.9h2.5c1.2,0,2-0.2,2.5-0.5
			c0.4-0.4,0.7-0.8,0.7-1.4c0-0.4-0.1-0.7-0.3-1c-0.2-0.3-0.5-0.5-0.9-0.7c-0.4-0.2-1.1-0.2-2.1-0.2h-2.4V205.9L823.8,205.9z"/>
	</g>
</g>
</svg>
