<svg width="393" height="392" viewBox="0 0 393 392" fill="none" xmlns="http://www.w3.org/2000/svg">
<path d="M363.401 258.299C324.976 348.128 223.547 386.714 144.075 380.134C122.376 378.337 78.7162 374.723 44.6281 342.481C-20.838 280.56 -10.7557 151.13 51.9138 74.928C59.9848 65.1154 115.847 -0.632822 202.9 0.247778C266.635 0.891778 311.371 36.9012 316.81 41.3882C323.682 47.0554 338.838 60.522 352.497 81.8874C384.592 132.084 387.412 202.163 363.401 258.299Z" fill="url(#paint0_linear_9_274)"/>
<path d="M392.805 2.96798C393.694 1.19558 391.35 -0.681825 389.421 0.244975C369.829 9.65018 320.877 40.131 314.109 112.168C305.618 202.549 276.929 229.431 246.041 242.638C246.041 242.638 284.275 242.075 314.669 215.104C389.293 148.882 377.013 34.4848 392.805 2.96798Z" fill="#BDD0FB"/>
<path d="M373.804 27.3028C369.431 36.5484 365.275 45.8752 361.524 55.3476C357.715 64.7962 354.244 74.361 351.124 84.028C348.049 93.7062 345.183 103.446 342.805 113.306C340.375 123.152 338.436 133.109 336.531 143.112C334.563 153.097 332.646 163.17 329.531 173.032C326.434 182.876 321.921 192.476 315.483 200.949C313.877 203.06 312.216 205.15 310.426 207.127C308.679 209.136 306.825 211.071 304.929 212.974C301.115 216.762 296.99 220.317 292.563 223.57C283.685 230.055 273.597 235.281 262.923 239.194C261.799 239.606 260.447 239.117 259.902 238.101C259.368 237.104 259.81 235.97 260.889 235.539L260.896 235.536C263.456 234.518 265.998 233.474 268.472 232.331C269.72 231.778 270.934 231.175 272.161 230.594C273.359 229.971 274.588 229.39 275.761 228.733C280.507 226.181 285.018 223.328 289.245 220.181C297.728 213.931 305.101 206.473 311.269 198.39C314.299 194.313 316.966 190.026 319.233 185.553C321.497 181.077 323.36 176.418 324.914 171.646C328.022 162.093 330.016 152.144 332.068 142.176C334.135 132.209 336.291 122.212 338.919 112.333C340.218 107.391 341.62 102.476 343.123 97.5912C343.858 95.144 344.649 92.7136 345.432 90.2818C346.244 87.8584 347.072 85.4392 347.923 83.0284C351.345 73.3908 355.107 63.8694 359.216 54.4866C363.377 45.1234 367.828 35.8764 372.691 26.8212C372.83 26.5622 373.189 26.4656 373.495 26.6056C373.79 26.7386 373.924 27.048 373.804 27.3028Z" fill="white"/>
<path d="M299.941 202.133C301.445 204.75 305.132 204.978 306.98 202.593C317.177 189.428 342.646 149.6 329.586 93.6138C318.559 46.3358 317.071 19.6518 317.234 7.49139C317.269 4.91959 314.001 3.79959 312.447 5.84779C295.293 28.4466 245.425 107.332 299.941 202.133Z" fill="#91B3FA"/>
<path d="M303.969 201.447C304.038 201.477 304.11 201.501 304.186 201.517C304.822 201.659 305.45 201.258 305.591 200.623C305.751 199.903 321.439 127.842 309.074 61.4138C308.955 60.774 308.34 60.3526 307.699 60.4702C307.06 60.5892 306.638 61.2052 306.756 61.845C319.03 127.791 303.448 199.396 303.29 200.112C303.166 200.672 303.462 201.226 303.969 201.447Z" fill="white"/>
<path d="M76.3198 98.5908C76.3044 98.5908 76.289 98.5908 76.2736 98.5894C75.6143 98.5642 75.1006 98.0098 75.1258 97.3504C75.1314 97.1922 75.7739 81.3064 79.7758 62.8712C85.1746 37.9904 93.7845 20.545 105.366 11.018C113.652 4.20139 123.409 1.61839 134.362 3.34319C146.98 5.32979 157.599 11.564 165.922 21.8708C172.53 30.0552 177.701 40.8072 181.291 53.83C187.376 75.9038 186.805 97.2188 186.798 97.4316C186.778 98.091 186.246 98.609 185.567 98.5894C184.908 98.5698 184.39 98.0182 184.41 97.3588C184.417 97.1488 184.974 76.146 178.974 54.4152C175.471 41.7228 170.449 31.2704 164.048 23.352C156.111 13.5324 145.998 7.59499 133.991 5.70359C123.74 4.08939 114.621 6.49879 106.883 12.8632C92.988 24.2942 85.7429 46.6424 82.1106 63.3766C78.1535 81.6074 77.5194 97.2832 77.5138 97.44C77.4886 98.0854 76.9595 98.5908 76.3198 98.5908Z" fill="url(#paint1_linear_9_274)"/>
<path d="M287.123 363.733L245.712 78.1018L83.7763 76.0368L45.2762 379.225L273.652 379.609C281.964 379.609 288.337 372.099 287.123 363.733Z" fill="url(#paint2_linear_9_274)"/>
<path d="M54.1226 78.6044L83.7749 76.0368L45.2762 379.225L10.0026 379.609C3.92068 379.609 2.56293 377.909 3.80171 371.851L54.1226 78.6044Z" fill="url(#paint3_linear_9_274)"/>
<path d="M109.749 97.9356C109.733 97.9356 109.718 97.9356 109.702 97.9342C109.043 97.909 108.529 97.3546 108.555 96.6952C108.56 96.537 109.203 80.6512 113.205 62.216C118.603 37.3366 127.213 19.8898 138.795 10.3642C147.083 3.54619 156.842 0.964592 167.792 2.68939C180.411 4.67599 191.029 10.9102 199.352 21.217C205.96 29.4014 211.131 40.1534 214.721 53.1762C220.806 75.25 220.235 96.565 220.228 96.7778C220.208 97.4372 219.682 97.9538 218.997 97.9356C218.338 97.916 217.82 97.3644 217.84 96.705C217.847 96.495 218.404 75.4922 212.405 53.7614C208.901 41.069 203.879 30.618 197.478 22.6982C189.541 12.8786 179.428 6.93979 167.421 5.04979C157.173 3.43559 148.053 5.84499 140.315 12.208C126.427 23.632 119.181 45.9634 115.548 62.685C111.586 80.92 110.948 96.6294 110.943 96.7862C110.916 97.4302 110.387 97.9356 109.749 97.9356Z" fill="url(#paint4_linear_9_274)"/>
<path d="M122.682 107.135C122.682 95.4268 132.171 85.9362 143.877 85.9362H324.117C334.061 85.9362 342.261 93.73 342.766 103.663L356.071 365.023C356.467 372.796 350.348 379.352 342.569 379.494L135.99 383.25C128.679 383.383 122.682 377.492 122.682 370.18V107.135Z" fill="url(#paint5_linear_9_274)"/>
<path d="M137.448 89.9598C137.426 86.2134 140.719 83.3154 144.432 83.818C169.045 87.157 253.683 97.482 323.662 92.1088C326.854 91.8638 329.622 94.2816 329.793 97.4792L343.743 360.004C343.935 363.604 341.186 366.682 337.588 366.895C308.157 368.637 186.949 375.371 143.715 370.842C141.083 370.566 139.086 368.35 139.071 365.704L137.448 89.9598Z" fill="#7D97F4"/>
<path d="M140.347 96.5383C140.326 92.9333 143.495 90.1431 147.067 90.6275C170.754 93.8405 252.205 103.776 319.548 98.6061C322.619 98.3709 325.284 100.698 325.448 103.774L338.873 356.413C339.058 359.877 336.412 362.839 332.951 363.045C304.627 364.721 187.983 371.202 146.379 366.843C143.846 366.579 141.925 364.445 141.909 361.9L140.347 96.5383Z" fill="#BDD0FB"/>
<g opacity="0.6">
<path d="M314.355 121.192C314.708 121.192 314.989 120.904 314.978 120.55L314.91 118.201C314.9 117.848 314.602 117.554 314.249 117.547L246.305 116.336C245.952 116.33 245.759 116.598 245.877 116.931L247.165 120.586C247.282 120.919 247.667 121.192 248.02 121.192H314.355Z" fill="white"/>
</g>
<g opacity="0.6">
<path d="M246.305 131.496C245.952 131.491 245.759 131.758 245.877 132.091L247.165 135.747C247.282 136.08 247.667 136.353 248.02 136.353H314.355C314.708 136.353 314.989 136.065 314.978 135.71L314.91 133.361C314.9 133.008 314.602 132.714 314.249 132.707L246.305 131.496Z" fill="white"/>
</g>
<g opacity="0.6">
<path d="M245.846 161.668C245.493 161.661 245.3 161.93 245.418 162.263L246.705 165.918C246.823 166.251 247.208 166.524 247.561 166.524H313.896C314.249 166.524 314.53 166.236 314.519 165.882L314.45 163.533C314.441 163.18 314.142 162.886 313.79 162.879L245.846 161.668Z" fill="white"/>
</g>
<g opacity="0.6">
<path d="M246.305 147.263C245.952 147.256 245.759 147.525 245.877 147.858L247.165 151.514C247.282 151.847 247.667 152.12 248.02 152.12H314.355C314.708 152.12 314.989 151.831 314.978 151.477L314.91 149.128C314.9 148.775 314.602 148.481 314.249 148.474L246.305 147.263Z" fill="white"/>
</g>
<g opacity="0.6">
<path d="M318.368 201.984C318.721 201.984 318.991 201.695 318.966 201.342L318.805 198.99C318.781 198.638 318.472 198.348 318.119 198.345L156.775 197.12C156.422 197.117 156.317 197.338 156.542 197.61L159.75 201.488C159.976 201.76 160.449 201.984 160.802 201.984H318.368Z" fill="white"/>
</g>
<g opacity="0.6">
<path d="M156.775 212.741C156.422 212.738 156.317 212.96 156.542 213.231L159.75 217.109C159.976 217.381 160.449 217.605 160.802 217.605H318.37C318.722 217.605 318.993 217.316 318.967 216.964L318.806 214.612C318.783 214.259 318.473 213.969 318.121 213.966L156.775 212.741Z" fill="white"/>
</g>
<g opacity="0.6">
<path d="M158.184 276.06C158.556 277.472 159.839 278.45 161.297 278.438L280.22 277.424C281.565 277.413 282.641 276.303 282.612 274.957C282.584 273.65 281.519 272.602 280.21 272.597L161.284 272.055C159.185 272.045 157.649 274.03 158.184 276.06Z" fill="white"/>
</g>
<g opacity="0.6">
<path d="M157.868 252.392C158.24 253.803 159.522 254.782 160.981 254.769L279.903 253.756C281.248 253.744 282.325 252.634 282.295 251.289C282.267 249.981 281.202 248.934 279.893 248.928L160.968 248.387C158.869 248.377 157.332 250.362 157.868 252.392Z" fill="white"/>
</g>
<g opacity="0.6">
<path d="M158.184 303.612C158.556 305.024 159.839 306.002 161.297 305.99L280.22 304.976C281.565 304.965 282.641 303.855 282.612 302.509C282.584 301.202 281.519 300.154 280.21 300.149L161.284 299.606C159.185 299.597 157.649 301.582 158.184 303.612Z" fill="white"/>
</g>
<g opacity="0.6">
<path d="M159.566 331.166C159.938 332.577 161.22 333.556 162.679 333.543L281.601 332.529C282.946 332.518 284.023 331.408 283.993 330.063C283.965 328.755 282.9 327.708 281.591 327.702L162.666 327.159C160.566 327.149 159.03 329.134 159.566 331.166Z" fill="white"/>
</g>
<path d="M314.215 257.496C314.204 257.496 314.191 257.498 314.18 257.498L301.329 257.768C299.493 257.806 297.939 256.589 297.715 254.939L296.257 244.192C296.171 243.561 296.349 242.929 296.756 242.413C297.213 241.835 297.918 241.459 298.692 241.382C299.773 241.276 301.293 241.098 302.903 240.912C306.291 240.519 310.509 240.029 312.888 239.926C314.614 239.865 316.111 240.842 316.563 242.333C317.307 244.787 317.393 249.474 317.418 254.468C317.425 256.091 315.992 257.442 314.215 257.496ZM298.789 242.364C298.279 242.414 297.821 242.655 297.53 243.023C297.29 243.327 297.185 243.694 297.235 244.056L298.693 254.803C298.85 255.958 299.974 256.806 301.31 256.78L314.161 256.509C314.169 256.509 314.177 256.509 314.186 256.508C315.43 256.47 316.435 255.562 316.43 254.471C316.404 249.553 316.323 244.944 315.618 242.617C315.301 241.574 314.184 240.876 312.93 240.911C310.587 241.011 306.389 241.499 303.016 241.891C301.402 242.08 299.878 242.256 298.789 242.364Z" fill="white"/>
<path opacity="0.6" d="M300.205 243.435C302.898 243.167 308.746 242.393 311.526 242.273C312.705 242.222 313.76 242.903 314.068 243.916C314.666 245.886 314.716 249.845 314.735 253.502C314.74 254.597 313.762 255.501 312.536 255.527L302.266 255.742C301.003 255.769 299.928 254.94 299.777 253.821L298.611 245.234C298.491 244.346 299.207 243.534 300.205 243.435Z" fill="white"/>
<path d="M317.023 284.038C317.012 284.038 316.999 284.039 316.988 284.039L304.137 284.309C302.301 284.347 300.747 283.13 300.523 281.48L299.064 270.733C298.979 270.102 299.157 269.471 299.564 268.954C300.02 268.376 300.726 268.001 301.5 267.924C302.581 267.817 304.101 267.639 305.71 267.453C309.099 267.06 313.317 266.57 315.696 266.468C315.713 266.468 315.731 266.466 315.748 266.466C317.437 266.414 318.923 267.399 319.371 268.876C320.115 271.33 320.201 276.017 320.226 281.011C320.231 282.632 318.799 283.983 317.023 284.038ZM301.597 268.905C301.087 268.955 300.629 269.196 300.338 269.564C300.097 269.868 299.992 270.235 300.043 270.598L301.501 281.344C301.658 282.499 302.782 283.347 304.117 283.321L316.969 283.051C316.977 283.051 316.985 283.051 316.994 283.049C318.238 283.011 319.243 282.103 319.238 281.012C319.212 276.093 319.131 271.485 318.426 269.158C318.109 268.115 316.976 267.394 315.738 267.452C313.395 267.553 309.197 268.04 305.824 268.432C304.21 268.621 302.686 268.797 301.597 268.905Z" fill="white"/>
<path opacity="0.6" d="M303.013 269.976C305.706 269.709 311.554 268.934 314.334 268.814C315.513 268.764 316.568 269.444 316.876 270.458C317.474 272.427 317.524 276.387 317.542 280.043C317.548 281.138 316.57 282.043 315.343 282.068L305.074 282.283C303.811 282.31 302.736 281.481 302.585 280.363L301.419 271.775C301.298 270.886 302.015 270.074 303.013 269.976Z" fill="white"/>
<path d="M317.866 311.577C317.855 311.577 317.842 311.578 317.831 311.578L304.98 311.849C303.143 311.888 301.59 310.671 301.366 309.019L299.907 298.273C299.822 297.641 299.999 297.01 300.407 296.493C300.863 295.915 301.569 295.54 302.343 295.463C303.423 295.357 304.943 295.179 306.553 294.993C309.942 294.599 314.159 294.109 316.539 294.007C316.556 294.007 316.574 294.006 316.591 294.004C318.28 293.952 319.765 294.937 320.213 296.414C320.958 298.868 321.043 303.555 321.068 308.549C321.074 310.171 319.642 311.522 317.866 311.577ZM302.439 296.444C301.93 296.495 301.472 296.736 301.181 297.104C300.94 297.408 300.835 297.774 300.885 298.138L302.344 308.885C302.501 310.04 303.625 310.888 304.96 310.86L317.811 310.59C317.82 310.59 317.828 310.59 317.836 310.589C319.081 310.551 320.086 309.642 320.08 308.552C320.055 303.633 319.974 299.025 319.268 296.698C318.952 295.655 317.818 294.93 316.581 294.991C314.238 295.092 310.04 295.579 306.666 295.971C305.051 296.16 303.527 296.337 302.439 296.444Z" fill="white"/>
<path opacity="0.6" d="M303.856 297.515C306.549 297.248 312.397 296.474 315.177 296.353C316.355 296.303 317.411 296.983 317.719 297.997C318.317 299.967 318.367 303.926 318.385 307.583C318.391 308.678 317.412 309.582 316.186 309.607L305.916 309.823C304.654 309.849 303.579 309.021 303.427 307.902L302.261 299.314C302.14 298.425 302.856 297.615 303.856 297.515Z" fill="white"/>
<path d="M318.707 339.116C318.696 339.116 318.683 339.118 318.672 339.118L305.821 339.388C303.985 339.427 302.431 338.211 302.207 336.559L300.748 325.812C300.663 325.181 300.841 324.549 301.248 324.033C301.704 323.455 302.41 323.079 303.184 323.002C304.264 322.896 305.785 322.718 307.394 322.532C310.783 322.139 315.001 321.649 317.38 321.546C317.397 321.546 317.415 321.545 317.432 321.545C319.121 321.493 320.606 322.477 321.054 323.954C321.799 326.409 321.884 331.096 321.91 336.09C321.917 337.711 320.483 339.062 318.707 339.116ZM303.282 323.984C302.772 324.034 302.315 324.275 302.023 324.643C301.783 324.947 301.678 325.314 301.728 325.678L303.187 336.424C303.343 337.579 304.467 338.428 305.803 338.4L318.654 338.129C318.662 338.129 318.671 338.129 318.679 338.128C319.923 338.09 320.928 337.182 320.923 336.091C320.898 331.173 320.816 326.564 320.111 324.237C319.795 323.194 318.661 322.465 317.423 322.531C315.08 322.631 310.882 323.119 307.509 323.511C305.894 323.7 304.369 323.876 303.282 323.984Z" fill="white"/>
<path opacity="0.6" d="M304.697 325.055C307.39 324.787 313.238 324.013 316.018 323.893C317.197 323.842 318.252 324.523 318.56 325.536C319.158 327.506 319.208 331.465 319.226 335.122C319.232 336.217 318.254 337.121 317.027 337.147L306.757 337.362C305.495 337.389 304.42 336.56 304.269 335.441L303.103 326.854C302.982 325.966 303.699 325.154 304.697 325.055Z" fill="white"/>
<g opacity="0.8">
<path d="M222.155 128.624C221.818 128.208 221.289 128.036 220.726 128.048L169.588 129.121L168.296 125.016C168.117 124.445 167.579 124.078 166.97 124.093L159.949 124.278C159.196 124.298 158.587 124.821 158.587 125.573C158.587 126.325 159.197 126.818 159.949 126.799L165.948 126.658L176.805 161.357C176.988 161.941 177.536 162.343 178.157 162.351L214.051 162.833C214.893 162.844 215.576 162.315 215.576 161.518C215.576 160.721 214.892 160.175 214.051 160.167L179.204 159.792L176.407 150.783L214.7 150.84C215.484 150.842 216.176 150.328 216.395 149.617L222.439 130.071C222.599 129.564 222.494 129.039 222.155 128.624Z" fill="white"/>
<path d="M183.41 164.493C180.457 164.447 178.067 166.746 178.067 169.617C178.067 172.488 180.457 174.888 183.41 174.965C186.382 175.043 188.812 172.745 188.812 169.842C188.812 166.939 186.382 164.539 183.41 164.493ZM183.41 172.172C182.03 172.14 180.91 171.02 180.91 169.676C180.91 168.332 182.03 167.259 183.41 167.285C184.795 167.31 185.924 168.43 185.924 169.781C185.924 171.132 184.795 172.204 183.41 172.172Z" fill="white"/>
<path d="M207.338 164.864C204.239 164.816 201.73 167.17 201.73 170.111C201.73 173.053 204.237 175.511 207.338 175.594C210.456 175.676 213.008 173.323 213.008 170.348C213.008 167.373 210.456 164.913 207.338 164.864ZM207.338 172.733C205.889 172.7 204.713 171.552 204.713 170.176C204.713 168.799 205.889 167.7 207.338 167.727C208.791 167.754 209.976 168.902 209.976 170.286C209.976 171.668 208.791 172.767 207.338 172.733Z" fill="white"/>
</g>
<path opacity="0.81" d="M192.868 188.633C168.205 188.633 148.139 168.564 148.139 143.896C148.139 119.228 168.205 99.1592 192.868 99.1592C217.532 99.1592 237.597 119.228 237.597 143.896C237.597 168.564 217.533 188.633 192.868 188.633ZM192.868 102.981C170.311 102.981 151.961 121.335 151.961 143.896C151.961 166.457 170.311 184.811 192.868 184.811C215.425 184.811 233.776 166.457 233.776 143.896C233.776 121.335 215.425 102.981 192.868 102.981Z" fill="white"/>
<path d="M245.176 50.302C238.665 45.7716 233.005 45.8612 229.02 47.0372C225.384 48.1096 223.029 51.6208 223.374 55.3952L225.093 74.1566L245.544 75.9724C245.542 75.9724 257.943 59.1864 245.176 50.302ZM236.182 65.4374C233.366 65.4374 231.083 63.154 231.083 60.3372C231.083 57.5204 233.366 55.237 236.182 55.237C238.998 55.237 241.281 57.5204 241.281 60.3372C241.281 63.154 238.998 65.4374 236.182 65.4374Z" fill="url(#paint6_linear_9_274)"/>
<path d="M227.134 66.2648C226.882 66.2648 226.667 66.073 226.643 65.8154L226.369 62.8278C226.343 62.5562 226.543 62.3168 226.815 62.2916C227.092 62.265 227.327 62.4666 227.351 62.7382L227.625 65.7258C227.651 65.9974 227.451 66.2368 227.179 66.262C227.165 66.2648 227.15 66.2648 227.134 66.2648ZM226.598 60.41C226.346 60.41 226.131 60.2182 226.107 59.9606L225.898 57.6926C225.569 54.096 227.831 50.7486 231.277 49.7308C233.719 49.0098 236.233 48.9076 238.752 49.4242C239.019 49.4788 239.192 49.7392 239.137 50.0066C239.082 50.2726 238.823 50.4434 238.555 50.3902C236.196 49.9072 233.842 50.0038 231.557 50.6772C228.562 51.562 226.595 54.474 226.881 57.603L227.089 59.871C227.115 60.1426 226.914 60.382 226.643 60.4072C226.627 60.41 226.613 60.41 226.598 60.41Z" fill="white"/>
<path d="M197.181 86.282V76.8488C197.181 73.5924 199.88 70.9842 203.133 71.0962L268.155 73.325C271.041 73.4244 273.378 75.7022 273.551 78.5848L274.094 87.6484L197.181 86.282Z" fill="url(#paint7_linear_9_274)"/>
<path d="M221.426 74.6508H218.629C218.356 74.6508 218.135 74.4296 218.135 74.1566C218.135 73.8836 218.356 73.6624 218.629 73.6624H221.426C221.699 73.6624 221.92 73.8836 221.92 74.1566C221.919 74.4296 221.699 74.6508 221.426 74.6508Z" fill="white"/>
<path d="M200.7 83.3196C200.427 83.3196 200.206 83.0984 200.206 82.8254V79.009C200.206 76.0606 202.604 73.6624 205.551 73.6624H215.833C216.106 73.6624 216.327 73.8836 216.327 74.1566C216.327 74.4296 216.106 74.6508 215.833 74.6508H205.551C203.148 74.6508 201.193 76.6066 201.193 79.0104V82.8268C201.194 83.0998 200.973 83.3196 200.7 83.3196Z" fill="white"/>
<path d="M170.687 88.6634C170.843 85.3972 173.536 82.8296 176.806 82.8296L290.511 82.8268C294.599 82.8268 298.094 85.7696 298.791 89.7988L298.888 90.3546C299.652 94.7674 296.255 98.805 291.776 98.805H175.121C172.44 98.805 170.306 96.5636 170.433 93.8868L170.687 88.6634Z" fill="#7D97F4"/>
<path d="M160.197 203.344C160.197 203.344 158.061 197.721 155.566 198.236C153.072 198.751 150.343 200.668 150.343 200.668L146.335 206.088C146.335 206.088 157.586 210.521 161.542 207.981C161.542 207.981 173.034 209.968 187.545 207.585C185.444 203.148 184.193 198.708 183.456 195.261C176.106 199.423 168.191 202.531 160.197 203.344Z" fill="url(#paint8_linear_9_274)"/>
<path d="M221.069 162.557C221.069 162.557 204.616 183.284 183.456 195.262C184.191 198.709 185.444 203.15 187.545 207.586C198.522 205.785 211.225 201.485 221.994 191.933L221.069 162.557Z" fill="url(#paint9_linear_9_274)"/>
<path d="M241.588 254.423C238.37 239.137 235.153 230.287 224.379 201.312C220.989 192.193 217.91 182.967 219.398 173.354L221.069 162.557C221.069 162.557 242.006 155.47 265.216 162.259C265.216 162.259 296.881 176.016 275.372 243.964C265.679 254.811 254.333 257.904 241.588 254.423Z" fill="url(#paint10_linear_9_274)"/>
<path d="M224.633 148.775L230.062 161.82C230.405 162.645 231.147 163.232 232.026 163.383C235.156 163.92 242.727 164.759 247.699 161.489C248.291 161.099 248.443 160.293 248.037 159.712L238.006 145.309L224.633 148.775Z" fill="url(#paint11_linear_9_274)"/>
<path d="M230.249 128.817C230.02 129.031 220.625 147.484 220.625 147.484L231.273 152.625L242.776 136.459C242.776 136.459 234.066 125.223 230.249 128.817Z" fill="url(#paint12_linear_9_274)"/>
<path d="M237.936 138.398L232.625 147.253C232.544 147.388 232.449 147.51 232.334 147.616C231.702 148.204 229.539 149.916 227.866 147.585C226.441 145.599 225.103 143.793 223.671 143.048C222.834 142.612 221.805 142.96 221.38 143.802C220.505 145.537 218.81 149.073 217.745 152.426C217.477 153.266 217.911 154.169 218.729 154.5C220.884 155.373 225.146 156.954 228.927 157.476C229.549 157.562 230.163 157.3 230.533 156.793C232.159 154.564 236.745 148.334 238.31 146.775C239.764 145.326 242.447 145.872 243.657 146.22C244.116 146.352 244.604 146.289 245.013 146.042C246.239 145.303 248.381 143.462 246.423 140.347C245.936 139.573 246.185 138.54 246.949 138.037C248.319 137.136 249.804 135.444 248.389 132.705C246.956 129.931 244.396 129.682 242.652 129.896C241.88 129.99 241.097 129.585 240.801 128.867C240.67 128.548 240.409 128.275 239.925 128.177C239.011 127.992 238.412 127.156 238.591 126.241C238.899 124.671 238.667 122.633 236.163 121.255C231.569 118.728 227.543 122.846 226.52 126.321C225.496 129.795 230.634 132.252 233.864 132.661C236.238 132.962 237.538 135.554 238.062 136.907C238.254 137.399 238.208 137.946 237.936 138.398Z" fill="url(#paint13_linear_9_274)"/>
<path d="M236.076 149.425C236.076 149.425 238.362 144.047 240.976 144.266C243.591 144.486 245.65 147.091 242.408 150.02C238.377 153.665 236.076 149.425 236.076 149.425Z" fill="url(#paint14_linear_9_274)"/>
<path d="M239.528 389.144C244.585 389.581 253.361 390.292 260.28 390.596C264.439 390.779 266.834 390.372 268.213 389.82C268.21 389.976 268.206 390.123 268.2 390.258C268.168 390.986 267.576 391.569 266.841 391.611C253.767 392.34 243.37 391.863 239.667 391.639C238.902 391.593 238.446 390.76 238.837 390.107C239.032 389.78 239.27 389.46 239.528 389.144Z" fill="url(#paint15_linear_9_274)"/>
<path d="M260.279 390.596C253.36 390.291 244.583 389.581 239.526 389.144C244.498 383.043 260.279 378.931 260.279 378.931H264.736C267.801 383.351 268.245 387.558 268.211 389.819C266.832 390.372 264.439 390.779 260.279 390.596Z" fill="url(#paint16_linear_9_274)"/>
<path d="M265.487 371.654L265.07 379.908C265.025 380.801 264.356 381.553 263.46 381.681C262.57 381.808 261.378 381.825 260.112 381.403C259.334 381.144 258.756 380.489 258.613 379.688L257.171 371.652H265.487V371.654Z" fill="url(#paint17_linear_9_274)"/>
<path d="M323.377 390.534C325.57 390.229 326.562 389.089 326.978 387.871C326.981 387.883 326.984 387.894 326.987 387.905C327.308 389.19 326.561 390.522 325.066 391.154C323.259 391.92 321.283 392.05 319.748 391.987C318.102 391.92 316.592 391.238 315.762 390.148L315.749 390.131C317.4 390.947 319.719 391.044 323.377 390.534Z" fill="url(#paint18_linear_9_274)"/>
<path d="M313.037 371.601H316.712C322.311 371.486 325.826 383.296 326.978 387.87C326.562 389.088 325.57 390.228 323.377 390.533C319.719 391.042 317.4 390.947 315.748 390.13C312.723 386.148 311.224 380.318 310.503 376.915C309.683 373.045 313.037 371.601 313.037 371.601Z" fill="url(#paint19_linear_9_274)"/>
<path d="M316.239 363.938L318.28 372.057C318.531 373.052 318.055 374.081 317.134 374.555C315.991 375.141 314.385 375.756 312.906 375.578C312.212 375.494 311.634 375.005 311.405 374.35L308.408 365.809L316.239 363.938Z" fill="url(#paint20_linear_9_274)"/>
<path d="M318.675 366.286C316.136 368.539 307.876 368.837 307.876 368.837C278.124 297.417 265.721 277.756 265.721 277.756C270.017 304.713 266.646 373.908 266.646 373.908C261.737 376.075 255.406 373.908 255.406 373.908C255.007 329.776 248.795 282.353 240.783 252.011C260.892 251.559 271.82 247.174 275.312 244.412C292.074 271.439 318.675 366.286 318.675 366.286Z" fill="url(#paint21_linear_9_274)"/>
<path d="M235.717 271.967L239.417 294.984C240.062 298.998 243.78 301.781 247.832 301.287L303.212 294.531C305.92 294.2 307.975 291.938 308.03 289.22C308.149 283.273 307.915 272.688 305.419 263.045L235.717 271.967Z" fill="url(#paint22_linear_9_274)"/>
<path d="M247.652 299.86C247.649 299.86 247.646 299.86 247.642 299.86C247.197 299.835 246.75 299.769 246.316 299.664C246.228 299.643 246.173 299.554 246.196 299.466C246.217 299.377 246.305 299.324 246.395 299.345C246.809 299.446 247.236 299.509 247.661 299.533C247.752 299.537 247.821 299.615 247.815 299.706C247.811 299.793 247.738 299.86 247.652 299.86ZM250.7 299.604C250.618 299.604 250.548 299.543 250.538 299.46C250.527 299.37 250.591 299.288 250.681 299.277L251.984 299.118C252.082 299.106 252.156 299.172 252.167 299.261C252.178 299.351 252.114 299.433 252.024 299.445L250.721 299.604C250.713 299.604 250.706 299.604 250.7 299.604ZM255.044 299.074C254.961 299.074 254.891 299.013 254.881 298.929C254.87 298.84 254.935 298.757 255.024 298.747L256.327 298.588C256.425 298.577 256.499 298.641 256.511 298.731C256.522 298.82 256.457 298.903 256.368 298.913L255.065 299.072C255.056 299.074 255.051 299.074 255.044 299.074ZM259.387 298.544C259.305 298.544 259.235 298.483 259.225 298.4C259.214 298.311 259.278 298.228 259.368 298.218L260.671 298.059C260.769 298.046 260.843 298.112 260.854 298.201C260.865 298.291 260.801 298.374 260.711 298.385L259.408 298.544C259.401 298.544 259.394 298.544 259.387 298.544ZM243.618 298.346C243.583 298.346 243.546 298.334 243.517 298.311C243.164 298.036 242.835 297.728 242.537 297.395C242.477 297.328 242.482 297.223 242.551 297.163C242.618 297.102 242.722 297.108 242.783 297.175C243.067 297.493 243.381 297.788 243.718 298.05C243.79 298.106 243.802 298.208 243.748 298.281C243.716 298.325 243.667 298.346 243.618 298.346ZM263.732 298.014C263.649 298.014 263.579 297.952 263.57 297.87C263.558 297.78 263.623 297.697 263.712 297.688L265.016 297.528C265.113 297.517 265.188 297.581 265.199 297.671C265.21 297.76 265.146 297.843 265.056 297.853L263.753 298.012C263.745 298.014 263.738 298.014 263.732 298.014ZM268.075 297.485C267.993 297.485 267.923 297.423 267.913 297.34C267.902 297.251 267.966 297.168 268.056 297.158L269.359 296.999C269.457 296.985 269.531 297.052 269.542 297.142C269.553 297.231 269.489 297.314 269.4 297.324L268.096 297.483C268.088 297.485 268.082 297.485 268.075 297.485ZM272.419 296.954C272.336 296.954 272.266 296.892 272.256 296.81C272.245 296.72 272.31 296.638 272.399 296.626L273.702 296.467C273.8 296.454 273.875 296.52 273.886 296.61C273.897 296.699 273.833 296.782 273.743 296.793L272.44 296.951C272.433 296.954 272.426 296.954 272.419 296.954ZM276.764 296.425C276.681 296.425 276.611 296.363 276.601 296.281C276.59 296.191 276.654 296.108 276.744 296.099L278.047 295.939C278.145 295.928 278.219 295.992 278.231 296.082C278.242 296.171 278.177 296.254 278.088 296.265L276.785 296.425C276.776 296.423 276.771 296.425 276.764 296.425ZM281.107 295.894C281.024 295.894 280.954 295.833 280.945 295.75C280.933 295.66 280.998 295.578 281.087 295.568L282.391 295.408C282.489 295.394 282.563 295.462 282.574 295.551C282.585 295.641 282.521 295.723 282.431 295.733L281.128 295.893C281.121 295.894 281.114 295.894 281.107 295.894ZM285.452 295.365C285.369 295.365 285.299 295.303 285.289 295.221C285.278 295.131 285.343 295.049 285.432 295.037L286.735 294.878C286.833 294.865 286.908 294.931 286.919 295.021C286.93 295.11 286.866 295.193 286.776 295.204L285.473 295.364C285.464 295.364 285.457 295.365 285.452 295.365ZM289.795 294.834C289.713 294.834 289.643 294.773 289.633 294.69C289.622 294.601 289.686 294.518 289.776 294.508L291.079 294.349C291.177 294.337 291.251 294.402 291.262 294.491C291.273 294.581 291.209 294.664 291.119 294.673L289.816 294.833C289.808 294.834 289.802 294.834 289.795 294.834ZM241.167 294.804C241.097 294.804 241.032 294.759 241.01 294.687C240.909 294.361 240.829 294.022 240.775 293.681L240.727 293.384C240.713 293.294 240.773 293.21 240.863 293.196C240.954 293.18 241.036 293.243 241.05 293.332L241.098 293.63C241.15 293.957 241.225 294.28 241.322 294.592C241.349 294.679 241.301 294.771 241.214 294.798C241.199 294.801 241.182 294.804 241.167 294.804ZM294.14 294.305C294.057 294.305 293.987 294.244 293.978 294.161C293.966 294.071 294.031 293.989 294.12 293.979L295.424 293.819C295.522 293.805 295.596 293.873 295.607 293.962C295.618 294.052 295.554 294.134 295.464 294.144L294.161 294.304C294.153 294.304 294.146 294.305 294.14 294.305ZM298.483 293.775C298.401 293.775 298.331 293.713 298.321 293.63C298.31 293.541 298.374 293.458 298.464 293.447L299.767 293.287C299.865 293.275 299.939 293.341 299.95 293.43C299.962 293.52 299.897 293.602 299.808 293.612L298.504 293.772C298.496 293.775 298.49 293.775 298.483 293.775ZM302.802 293.114C302.734 293.114 302.671 293.072 302.648 293.006C302.617 292.921 302.662 292.827 302.746 292.796C303.145 292.652 303.524 292.457 303.874 292.218C303.948 292.167 304.052 292.186 304.102 292.261C304.154 292.335 304.134 292.438 304.06 292.489C303.688 292.744 303.283 292.951 302.858 293.105C302.838 293.111 302.82 293.114 302.802 293.114ZM240.402 290.497C240.323 290.497 240.253 290.44 240.24 290.359L240.031 289.062C240.017 288.973 240.078 288.889 240.167 288.873C240.261 288.859 240.342 288.921 240.355 289.009L240.563 290.305C240.577 290.395 240.517 290.479 240.428 290.493C240.419 290.496 240.411 290.497 240.402 290.497ZM305.86 290.167C305.839 290.167 305.82 290.163 305.799 290.154C305.715 290.121 305.674 290.024 305.708 289.94C305.866 289.547 305.974 289.134 306.028 288.714C306.039 288.624 306.12 288.56 306.211 288.572C306.301 288.583 306.365 288.666 306.353 288.756C306.295 289.204 306.181 289.643 306.011 290.062C305.987 290.128 305.926 290.167 305.86 290.167ZM239.708 286.175C239.628 286.175 239.56 286.118 239.546 286.037L239.337 284.74C239.323 284.651 239.383 284.567 239.473 284.551C239.564 284.536 239.646 284.599 239.66 284.687L239.869 285.984C239.883 286.073 239.823 286.157 239.733 286.173C239.725 286.174 239.716 286.175 239.708 286.175ZM306.258 285.838C306.167 285.838 306.094 285.765 306.094 285.674C306.094 285.251 306.091 284.813 306.084 284.362C306.083 284.271 306.155 284.197 306.246 284.196C306.336 284.201 306.412 284.267 306.413 284.358C306.419 284.81 306.421 285.249 306.423 285.674C306.421 285.765 306.349 285.838 306.258 285.838ZM239.014 281.854C238.934 281.854 238.865 281.796 238.851 281.715L238.643 280.419C238.629 280.329 238.689 280.245 238.779 280.231C238.872 280.213 238.952 280.277 238.966 280.367L239.175 281.663C239.189 281.753 239.129 281.837 239.039 281.851C239.031 281.854 239.022 281.854 239.014 281.854ZM306.169 281.46C306.081 281.46 306.008 281.39 306.006 281.302C305.989 280.872 305.971 280.435 305.948 279.992C305.944 279.901 306.013 279.824 306.104 279.819C306.197 279.819 306.272 279.885 306.276 279.975C306.298 280.42 306.318 280.858 306.333 281.289C306.337 281.38 306.266 281.456 306.175 281.46C306.174 281.46 306.172 281.46 306.169 281.46ZM238.318 277.533C238.238 277.533 238.168 277.476 238.156 277.395L237.947 276.098C237.933 276.009 237.993 275.925 238.083 275.911C238.174 275.895 238.257 275.957 238.271 276.046L238.479 277.343C238.493 277.432 238.433 277.516 238.343 277.532C238.336 277.532 238.327 277.533 238.318 277.533ZM305.916 277.091C305.831 277.091 305.759 277.026 305.752 276.94C305.719 276.508 305.682 276.072 305.642 275.633C305.633 275.542 305.701 275.463 305.79 275.454C305.883 275.443 305.961 275.513 305.968 275.603C306.008 276.044 306.045 276.48 306.08 276.913C306.087 277.004 306.02 277.082 305.929 277.089C305.925 277.091 305.92 277.091 305.916 277.091ZM237.624 273.211C237.544 273.211 237.475 273.154 237.461 273.073L237.253 271.776C237.239 271.687 237.299 271.603 237.389 271.589C237.482 271.575 237.562 271.635 237.576 271.725L237.785 273.021C237.799 273.111 237.739 273.195 237.649 273.209C237.642 273.21 237.632 273.211 237.624 273.211ZM305.478 272.735C305.397 272.735 305.325 272.675 305.316 272.591C305.262 272.16 305.205 271.726 305.145 271.291C305.132 271.201 305.195 271.118 305.285 271.106C305.38 271.095 305.458 271.156 305.47 271.246C305.531 271.683 305.587 272.118 305.642 272.551C305.653 272.64 305.589 272.723 305.499 272.734C305.492 272.734 305.485 272.735 305.478 272.735ZM238.049 271.834C237.968 271.834 237.897 271.774 237.887 271.69C237.876 271.6 237.939 271.517 238.028 271.506L239.33 271.34C239.434 271.327 239.502 271.393 239.514 271.482C239.525 271.572 239.462 271.655 239.372 271.666L238.07 271.832C238.063 271.832 238.056 271.834 238.049 271.834ZM242.391 271.278C242.31 271.278 242.239 271.218 242.229 271.134C242.218 271.044 242.281 270.962 242.37 270.95L243.672 270.784C243.774 270.771 243.844 270.837 243.856 270.927C243.867 271.016 243.804 271.099 243.714 271.11L242.412 271.277C242.404 271.277 242.397 271.278 242.391 271.278ZM246.732 270.722C246.651 270.722 246.579 270.662 246.57 270.578C246.558 270.488 246.621 270.406 246.711 270.395L248.013 270.228C248.115 270.217 248.185 270.281 248.196 270.371C248.207 270.46 248.144 270.543 248.055 270.554L246.753 270.721C246.745 270.722 246.738 270.722 246.732 270.722ZM251.073 270.166C250.991 270.166 250.92 270.106 250.91 270.024C250.899 269.934 250.962 269.851 251.052 269.84L252.353 269.674C252.454 269.661 252.526 269.727 252.537 269.816C252.548 269.906 252.485 269.989 252.395 270L251.094 270.166C251.087 270.166 251.08 270.166 251.073 270.166ZM255.413 269.611C255.332 269.611 255.261 269.55 255.251 269.466C255.24 269.377 255.303 269.294 255.392 269.283L256.694 269.116C256.795 269.104 256.866 269.17 256.877 269.258C256.889 269.347 256.826 269.43 256.736 269.441L255.434 269.608C255.427 269.611 255.42 269.611 255.413 269.611ZM259.754 269.055C259.673 269.055 259.601 268.995 259.591 268.911C259.58 268.821 259.643 268.738 259.733 268.727L261.035 268.561C261.134 268.549 261.207 268.614 261.218 268.703C261.229 268.793 261.166 268.876 261.077 268.887L259.775 269.053C259.768 269.055 259.761 269.055 259.754 269.055ZM264.094 268.499C264.013 268.499 263.942 268.439 263.932 268.356C263.921 268.267 263.984 268.184 264.073 268.173L265.375 268.006C265.475 267.994 265.547 268.059 265.559 268.149C265.57 268.239 265.507 268.321 265.417 268.332L264.115 268.499C264.108 268.499 264.101 268.499 264.094 268.499ZM304.829 268.405C304.75 268.405 304.682 268.349 304.668 268.269C304.591 267.84 304.511 267.411 304.427 266.981C304.409 266.892 304.467 266.806 304.556 266.788C304.645 266.77 304.731 266.829 304.749 266.917C304.834 267.348 304.914 267.779 304.991 268.211C305.006 268.3 304.947 268.386 304.858 268.401C304.847 268.405 304.837 268.405 304.829 268.405ZM268.435 267.945C268.354 267.945 268.282 267.884 268.273 267.802C268.262 267.712 268.324 267.63 268.414 267.618L269.716 267.452C269.821 267.441 269.888 267.505 269.899 267.595C269.91 267.684 269.847 267.767 269.758 267.778L268.456 267.945C268.449 267.943 268.442 267.945 268.435 267.945ZM272.776 267.389C272.695 267.389 272.623 267.329 272.613 267.245C272.602 267.155 272.665 267.072 272.755 267.061L274.056 266.895C274.16 266.881 274.229 266.948 274.24 267.037C274.251 267.127 274.188 267.21 274.098 267.221L272.797 267.387C272.79 267.389 272.783 267.389 272.776 267.389ZM277.116 266.833C277.035 266.833 276.964 266.773 276.954 266.69C276.943 266.601 277.006 266.518 277.095 266.507L278.397 266.34C278.501 266.328 278.569 266.393 278.58 266.483C278.592 266.573 278.529 266.655 278.439 266.666L277.137 266.833C277.13 266.833 277.123 266.833 277.116 266.833ZM281.458 266.277C281.377 266.277 281.306 266.217 281.296 266.134C281.285 266.045 281.348 265.962 281.437 265.951L282.739 265.784C282.841 265.773 282.911 265.838 282.922 265.926C282.934 266.015 282.871 266.098 282.781 266.109L281.479 266.276C281.471 266.277 281.464 266.277 281.458 266.277ZM285.799 265.721C285.718 265.721 285.646 265.661 285.637 265.577C285.625 265.488 285.688 265.405 285.778 265.394L287.08 265.227C287.18 265.215 287.252 265.28 287.263 265.37C287.274 265.46 287.211 265.542 287.122 265.553L285.82 265.72C285.812 265.721 285.805 265.721 285.799 265.721ZM290.14 265.167C290.058 265.167 289.987 265.107 289.977 265.023C289.966 264.933 290.029 264.851 290.119 264.839L291.42 264.673C291.521 264.662 291.592 264.726 291.604 264.816C291.615 264.905 291.552 264.988 291.462 264.999L290.161 265.166C290.154 265.166 290.145 265.167 290.14 265.167ZM294.48 264.611C294.399 264.611 294.328 264.551 294.318 264.467C294.307 264.377 294.37 264.295 294.459 264.284L295.761 264.117C295.86 264.106 295.933 264.17 295.944 264.26C295.956 264.349 295.893 264.432 295.803 264.443L294.501 264.61C294.494 264.61 294.487 264.611 294.48 264.611ZM303.926 264.123C303.851 264.123 303.784 264.072 303.766 263.998C303.721 263.812 303.674 263.627 303.626 263.442L303.182 263.5C303.086 263.512 303.01 263.446 302.999 263.357C302.988 263.267 303.051 263.185 303.14 263.173L303.872 263.08L303.909 263.22C303.969 263.452 304.028 263.686 304.087 263.92C304.108 264.008 304.054 264.096 303.966 264.118C303.952 264.121 303.94 264.123 303.926 264.123ZM298.821 264.055C298.74 264.055 298.668 263.995 298.658 263.911C298.647 263.822 298.71 263.739 298.8 263.728L300.102 263.561C300.2 263.549 300.274 263.614 300.285 263.704C300.296 263.794 300.233 263.876 300.144 263.887L298.842 264.054C298.835 264.055 298.828 264.055 298.821 264.055Z" fill="white"/>
<path d="M249.789 253.113L249.727 251.31C249.86 250.86 250.213 250.509 250.664 250.376C252.353 249.88 256.567 248.851 258.823 250.127L259.396 252.158L249.789 253.113Z" fill="url(#paint23_linear_9_274)"/>
<path d="M254.955 250.709C254.571 250.856 254.173 250.908 253.763 250.86C253.266 250.803 252.87 250.415 252.807 249.921L252.093 244.339L254.933 243.975L255.647 249.553C255.709 250.05 255.424 250.529 254.955 250.709Z" fill="url(#paint24_linear_9_274)"/>
<path d="M277.297 249.592L277.235 247.789C277.368 247.339 277.721 246.988 278.172 246.855C279.861 246.359 284.074 245.33 286.329 246.606L286.902 248.637L277.297 249.592Z" fill="url(#paint25_linear_9_274)"/>
<path d="M282.462 247.188C282.077 247.335 281.679 247.387 281.269 247.339C280.772 247.282 280.376 246.894 280.313 246.4L279.524 240.23L282.364 239.866L283.153 246.032C283.216 246.529 282.932 247.008 282.462 247.188Z" fill="url(#paint26_linear_9_274)"/>
<path d="M251.978 245.745L282.391 240.825C283.083 240.713 283.61 240.135 283.642 239.436C283.687 238.459 283.652 237.009 283.242 235.553C282.776 233.897 281.164 232.83 279.446 233.008C273.73 233.601 259.226 235.462 251.637 239.648C250.835 240.09 250.3 240.894 250.198 241.801C250.101 242.666 250.108 243.806 250.521 244.912C250.742 245.5 251.357 245.846 251.978 245.745Z" fill="url(#paint27_linear_9_274)"/>
<path d="M251.229 244.528C251.031 244.528 250.85 244.391 250.804 244.189C250.793 244.139 250.523 242.952 250.688 241.755C250.822 240.782 251.469 239.931 252.374 239.534C254.026 238.812 257.195 237.535 259.876 237.117C260.115 237.076 260.338 237.243 260.375 237.481C260.413 237.72 260.249 237.944 260.01 237.98C257.331 238.4 254.022 239.767 252.724 240.335C252.086 240.615 251.648 241.191 251.553 241.874C251.41 242.914 251.652 243.981 251.655 243.992C251.709 244.227 251.563 244.462 251.327 244.517C251.295 244.524 251.262 244.528 251.229 244.528Z" fill="#BDD0FB"/>
<path d="M235.53 254.232C245.381 252.843 288.009 246.931 300.598 246.84C301.682 246.831 302.653 247.502 303.019 248.517C304.175 251.735 306.634 259.244 307.435 266.893C307.544 267.935 306.895 268.908 305.895 269.233L278.277 278.211L268.222 279.497L237.298 277.361C236.207 277.285 235.309 276.486 235.115 275.415C234.428 271.603 232.97 262.636 233.266 256.707C233.331 255.45 234.274 254.409 235.53 254.232Z" fill="url(#paint28_linear_9_274)"/>
<path d="M268.172 277.193L266.83 277.103C266.739 277.096 266.671 277.019 266.677 276.928C266.684 276.839 266.761 276.77 266.852 276.776L268.162 276.867L268.299 276.846C268.397 276.833 268.471 276.899 268.483 276.987C268.494 277.077 268.431 277.159 268.341 277.171L268.172 277.193ZM263.785 276.892C263.781 276.892 263.778 276.892 263.774 276.892L262.464 276.801C262.373 276.795 262.306 276.717 262.311 276.626C262.317 276.536 262.394 276.472 262.486 276.473L263.796 276.564C263.887 276.571 263.954 276.648 263.949 276.739C263.943 276.826 263.872 276.892 263.785 276.892ZM271.359 276.784C271.278 276.784 271.207 276.724 271.197 276.641C271.186 276.552 271.249 276.469 271.338 276.458L272.64 276.291C272.744 276.279 272.812 276.345 272.823 276.434C272.834 276.524 272.772 276.606 272.682 276.618L271.38 276.784C271.372 276.783 271.365 276.784 271.359 276.784ZM259.419 276.591C259.415 276.591 259.412 276.591 259.408 276.591L258.098 276.501C258.007 276.494 257.94 276.416 257.945 276.326C257.952 276.235 258.038 276.171 258.12 276.174L259.431 276.265C259.522 276.272 259.589 276.35 259.583 276.44C259.577 276.525 259.506 276.591 259.419 276.591ZM255.055 276.29C255.051 276.29 255.048 276.29 255.044 276.29L253.734 276.199C253.643 276.192 253.575 276.115 253.581 276.024C253.588 275.933 253.672 275.869 253.756 275.871L255.066 275.962C255.157 275.969 255.224 276.048 255.219 276.137C255.212 276.223 255.14 276.29 255.055 276.29ZM275.7 276.228C275.619 276.228 275.547 276.168 275.537 276.084C275.526 275.995 275.589 275.912 275.679 275.901L276.981 275.734C277.084 275.723 277.153 275.787 277.164 275.876C277.175 275.965 277.112 276.048 277.023 276.059L275.721 276.226C275.712 276.228 275.705 276.228 275.7 276.228ZM250.689 275.988C250.685 275.988 250.682 275.988 250.678 275.988L249.368 275.897C249.277 275.891 249.21 275.813 249.215 275.722C249.222 275.631 249.305 275.565 249.39 275.569L250.7 275.66C250.791 275.666 250.858 275.744 250.853 275.835C250.846 275.922 250.774 275.988 250.689 275.988ZM246.322 275.687C246.318 275.687 246.315 275.687 246.311 275.687L245.001 275.596C244.91 275.59 244.842 275.512 244.848 275.421C244.855 275.33 244.936 275.264 245.023 275.268L246.333 275.359C246.424 275.366 246.491 275.443 246.486 275.534C246.48 275.619 246.409 275.687 246.322 275.687ZM241.956 275.384C241.952 275.384 241.949 275.384 241.945 275.384L240.635 275.293C240.544 275.286 240.477 275.209 240.482 275.118C240.489 275.027 240.569 274.96 240.657 274.966L241.967 275.057C242.058 275.064 242.125 275.142 242.12 275.232C242.114 275.318 242.043 275.384 241.956 275.384ZM279.945 275.25C279.877 275.25 279.812 275.206 279.788 275.136C279.76 275.05 279.808 274.957 279.893 274.929L281.142 274.523C281.229 274.495 281.321 274.543 281.349 274.628C281.377 274.715 281.33 274.807 281.244 274.835L279.996 275.241C279.979 275.247 279.962 275.25 279.945 275.25ZM237.59 275.083C237.586 275.083 237.583 275.083 237.579 275.083L237.386 275.071L237.364 274.945C237.299 274.583 237.226 274.17 237.147 273.713C237.131 273.623 237.191 273.539 237.281 273.524C237.375 273.51 237.454 273.568 237.47 273.658C237.54 274.068 237.606 274.442 237.666 274.775C237.722 274.805 237.758 274.865 237.754 274.932C237.748 275.017 237.677 275.083 237.59 275.083ZM284.107 273.896C284.038 273.896 283.974 273.851 283.951 273.783C283.923 273.697 283.971 273.603 284.056 273.575L285.305 273.169C285.39 273.143 285.484 273.189 285.512 273.274C285.54 273.361 285.492 273.454 285.407 273.482L284.158 273.888C284.142 273.893 284.123 273.896 284.107 273.896ZM288.269 272.544C288.201 272.544 288.137 272.499 288.114 272.43C288.086 272.343 288.134 272.251 288.219 272.223L289.468 271.817C289.554 271.789 289.647 271.837 289.675 271.922C289.703 272.009 289.655 272.101 289.57 272.129L288.321 272.535C288.303 272.541 288.286 272.544 288.269 272.544ZM292.431 271.191C292.362 271.191 292.298 271.146 292.276 271.078C292.248 270.992 292.295 270.899 292.381 270.871L293.629 270.465C293.716 270.438 293.808 270.484 293.836 270.57C293.864 270.655 293.817 270.749 293.731 270.777L292.483 271.183C292.466 271.188 292.448 271.191 292.431 271.191ZM236.822 270.822C236.742 270.822 236.672 270.763 236.659 270.682C236.596 270.26 236.532 269.826 236.469 269.38C236.456 269.29 236.518 269.206 236.609 269.193C236.694 269.179 236.781 269.242 236.794 269.332C236.857 269.777 236.921 270.211 236.984 270.631C236.998 270.721 236.937 270.805 236.847 270.819C236.839 270.82 236.83 270.822 236.822 270.822ZM296.592 269.837C296.524 269.837 296.459 269.794 296.437 269.724C296.409 269.637 296.457 269.545 296.542 269.517L297.791 269.111C297.876 269.083 297.97 269.13 297.998 269.216C298.026 269.301 297.978 269.395 297.893 269.423L296.644 269.829C296.627 269.835 296.609 269.837 296.592 269.837ZM300.755 268.485C300.687 268.485 300.622 268.44 300.6 268.372C300.572 268.286 300.619 268.192 300.705 268.164L301.953 267.758C302.04 267.732 302.133 267.778 302.161 267.863C302.189 267.949 302.141 268.043 302.056 268.071L300.807 268.477C300.789 268.482 300.772 268.485 300.755 268.485ZM304.917 267.131C304.848 267.131 304.784 267.086 304.76 267.018C304.742 266.96 304.756 266.9 304.792 266.858C304.75 266.479 304.704 266.099 304.654 265.721C304.642 265.632 304.705 265.549 304.795 265.538C304.88 265.521 304.967 265.59 304.98 265.679C305.034 266.097 305.085 266.515 305.131 266.932L305.145 267.065L304.966 267.124C304.95 267.13 304.934 267.131 304.917 267.131ZM236.235 266.48C236.153 266.48 236.083 266.419 236.073 266.335C236.023 265.902 235.974 265.465 235.926 265.027C235.916 264.936 235.982 264.856 236.072 264.846C236.164 264.837 236.242 264.902 236.252 264.992C236.298 265.429 236.347 265.864 236.398 266.297C236.409 266.386 236.344 266.468 236.253 266.479C236.248 266.48 236.241 266.48 236.235 266.48ZM304.337 262.839C304.259 262.839 304.19 262.783 304.176 262.704C304.096 262.272 304.014 261.842 303.927 261.418C303.909 261.328 303.966 261.243 304.056 261.225C304.148 261.206 304.231 261.264 304.249 261.352C304.336 261.779 304.42 262.21 304.498 262.644C304.515 262.734 304.455 262.819 304.367 262.836C304.357 262.837 304.347 262.839 304.337 262.839ZM235.821 262.121C235.736 262.121 235.663 262.055 235.657 261.968C235.626 261.526 235.601 261.086 235.58 260.653C235.576 260.562 235.646 260.487 235.736 260.481C235.738 260.481 235.741 260.481 235.744 260.481C235.831 260.481 235.904 260.55 235.908 260.638C235.929 261.069 235.954 261.506 235.985 261.946C235.99 262.037 235.923 262.115 235.832 262.121C235.829 262.121 235.825 262.121 235.821 262.121ZM303.419 258.558C303.345 258.558 303.278 258.507 303.259 258.432C303.154 257.999 303.047 257.576 302.939 257.16C302.916 257.072 302.968 256.983 303.056 256.96C303.147 256.938 303.234 256.99 303.257 257.078C303.366 257.495 303.472 257.921 303.579 258.355C303.6 258.443 303.546 258.531 303.458 258.553C303.444 258.556 303.432 258.558 303.419 258.558ZM235.696 257.746C235.695 257.746 235.694 257.746 235.692 257.746C235.601 257.743 235.53 257.669 235.531 257.578C235.537 257.321 235.547 257.071 235.559 256.826C235.568 256.661 235.687 256.529 235.849 256.505L236.17 256.46C236.263 256.448 236.343 256.511 236.354 256.6C236.367 256.69 236.304 256.773 236.214 256.785L235.895 256.83C235.876 257.083 235.867 257.333 235.86 257.585C235.859 257.674 235.786 257.746 235.696 257.746ZM239.228 256.362C239.147 256.362 239.077 256.304 239.066 256.221C239.053 256.131 239.116 256.049 239.206 256.036L240.507 255.856C240.597 255.844 240.68 255.906 240.692 255.996C240.705 256.085 240.642 256.168 240.552 256.18L239.25 256.361C239.243 256.361 239.235 256.362 239.228 256.362ZM243.566 255.763C243.485 255.763 243.415 255.703 243.403 255.622C243.391 255.532 243.454 255.45 243.543 255.437L244.845 255.259C244.946 255.247 245.017 255.31 245.03 255.399C245.043 255.489 244.98 255.571 244.89 255.584L243.588 255.762C243.58 255.763 243.573 255.763 243.566 255.763ZM247.904 255.174C247.822 255.174 247.752 255.114 247.741 255.031C247.729 254.941 247.793 254.859 247.883 254.846L249.184 254.671C249.28 254.659 249.357 254.723 249.369 254.813C249.382 254.902 249.317 254.985 249.228 254.997L247.926 255.172C247.918 255.174 247.911 255.174 247.904 255.174ZM252.243 254.594C252.162 254.594 252.092 254.534 252.08 254.451C252.069 254.362 252.132 254.279 252.222 254.267L253.524 254.094C253.612 254.083 253.696 254.146 253.708 254.236C253.72 254.325 253.657 254.408 253.567 254.421L252.265 254.593C252.257 254.593 252.25 254.594 252.243 254.594ZM302.277 254.331C302.205 254.331 302.141 254.285 302.12 254.213C301.99 253.777 301.862 253.358 301.738 252.959C301.711 252.872 301.759 252.78 301.846 252.753C301.932 252.728 302.025 252.774 302.051 252.861C302.176 253.261 302.305 253.683 302.434 254.12C302.459 254.206 302.41 254.297 302.323 254.324C302.308 254.328 302.292 254.331 302.277 254.331ZM256.583 254.022C256.502 254.022 256.431 253.961 256.421 253.879C256.41 253.789 256.473 253.707 256.562 253.694L257.864 253.525C257.957 253.511 258.036 253.576 258.049 253.666C258.06 253.756 257.997 253.838 257.908 253.849L256.604 254.019C256.597 254.022 256.59 254.022 256.583 254.022ZM260.924 253.462C260.843 253.462 260.771 253.401 260.762 253.319C260.75 253.229 260.813 253.147 260.903 253.135L262.206 252.969C262.3 252.956 262.378 253.022 262.39 253.112C262.401 253.201 262.338 253.284 262.247 253.295L260.945 253.462C260.938 253.46 260.931 253.462 260.924 253.462ZM265.266 252.911C265.185 252.911 265.113 252.85 265.104 252.767C265.092 252.678 265.157 252.595 265.246 252.584L266.55 252.421C266.641 252.409 266.722 252.475 266.733 252.564C266.744 252.654 266.68 252.736 266.59 252.748L265.288 252.91C265.28 252.911 265.273 252.911 265.266 252.911ZM269.609 252.375C269.527 252.375 269.457 252.314 269.447 252.231C269.436 252.141 269.5 252.059 269.59 252.048L270.893 251.889C270.984 251.877 271.065 251.943 271.075 252.032C271.086 252.122 271.022 252.204 270.932 252.214L269.629 252.372C269.622 252.375 269.615 252.375 269.609 252.375ZM273.954 251.856C273.872 251.856 273.802 251.794 273.792 251.71C273.781 251.621 273.845 251.539 273.936 251.528L275.241 251.376C275.333 251.363 275.411 251.43 275.423 251.52C275.434 251.609 275.369 251.691 275.278 251.702L273.974 251.854C273.967 251.854 273.96 251.856 273.954 251.856ZM278.302 251.353C278.219 251.353 278.148 251.292 278.14 251.208C278.13 251.118 278.194 251.037 278.284 251.026L279.588 250.879C279.681 250.869 279.759 250.933 279.77 251.024C279.78 251.114 279.716 251.195 279.625 251.206L278.32 251.353C278.315 251.353 278.308 251.353 278.302 251.353ZM282.652 250.874C282.57 250.874 282.498 250.811 282.489 250.727C282.479 250.636 282.545 250.557 282.634 250.547L283.94 250.408C284.035 250.403 284.111 250.464 284.121 250.554C284.13 250.645 284.065 250.725 283.975 250.734L282.669 250.873C282.664 250.873 282.658 250.874 282.652 250.874ZM287.006 250.425C286.922 250.425 286.85 250.362 286.842 250.277C286.833 250.187 286.899 250.106 286.989 250.097C287.432 250.054 287.869 250.011 288.296 249.97C288.381 249.964 288.467 250.027 288.475 250.118C288.484 250.209 288.418 250.289 288.327 250.298C287.9 250.338 287.465 250.382 287.021 250.425C287.017 250.425 287.011 250.425 287.006 250.425ZM300.934 250.162C300.866 250.162 300.803 250.12 300.779 250.051C300.705 249.838 300.636 249.642 300.572 249.463C300.421 249.465 300.263 249.467 300.1 249.47C300.025 249.474 299.935 249.4 299.934 249.309C299.932 249.218 300.004 249.144 300.095 249.143C300.274 249.14 300.447 249.137 300.615 249.136C300.726 249.136 300.822 249.199 300.857 249.291C300.929 249.49 301.006 249.707 301.088 249.943C301.118 250.029 301.073 250.123 300.988 250.152C300.969 250.159 300.951 250.162 300.934 250.162ZM291.363 250.019C291.279 250.019 291.208 249.955 291.199 249.869C291.191 249.778 291.258 249.7 291.349 249.691C291.797 249.652 292.234 249.616 292.658 249.581C292.759 249.567 292.827 249.641 292.835 249.731C292.842 249.822 292.775 249.9 292.686 249.908C292.262 249.943 291.825 249.98 291.378 250.019C291.371 250.019 291.367 250.019 291.363 250.019ZM295.726 249.677C295.641 249.677 295.568 249.612 295.562 249.525C295.557 249.434 295.625 249.357 295.715 249.35C296.171 249.319 296.608 249.292 297.028 249.269C297.136 249.259 297.196 249.333 297.201 249.423C297.207 249.514 297.137 249.591 297.047 249.596C296.629 249.62 296.193 249.648 295.739 249.677C295.734 249.677 295.73 249.677 295.726 249.677Z" fill="white"/>
<path d="M277.871 282.556L269.064 283.683C267.909 283.83 266.827 283.097 266.544 281.973L264.442 273.626C264.107 272.296 265.014 270.973 266.38 270.798L276.961 269.444C278.299 269.273 279.496 270.281 279.548 271.622L279.877 280.196C279.923 281.38 279.052 282.405 277.871 282.556Z" fill="url(#paint29_linear_9_274)"/>
<path d="M276.589 281.135L269.885 281.994C269.006 282.106 268.183 281.547 267.968 280.692L266.368 274.338C266.113 273.326 266.803 272.32 267.843 272.187L275.896 271.156C276.915 271.026 277.825 271.793 277.864 272.815L278.114 279.341C278.149 280.241 277.487 281.021 276.589 281.135Z" fill="url(#paint30_linear_9_274)"/>
<path d="M271.349 213.583C273.427 222.169 273.483 230.569 273.166 233.626C273.047 234.78 272.121 235.68 270.964 235.761C269.651 235.854 267.864 235.974 266.267 236.067C264.512 236.167 262.562 235.059 261.259 234.13C260.594 233.657 259.733 234.394 260.104 235.122C260.743 236.375 261.856 237.362 262.959 238.2C263.623 238.704 265.83 239.602 265.676 240.594C265.627 240.908 265.438 241.181 265.235 241.424C264.009 242.896 262.153 243.683 260.322 244.244C260.093 244.314 259.85 244.39 259.688 244.567C259.642 245.752 263.285 247.068 264.226 247.38C265.634 247.848 267.129 248.045 268.607 247.89C272.273 247.503 275.658 244.973 277.631 241.923C282.908 233.766 285.638 223.917 286.635 216.384C281.726 211.474 274.314 212.719 271.349 213.583Z" fill="url(#paint31_linear_9_274)"/>
<path d="M286.636 217.158C290.551 187.576 267.759 164.83 267.759 164.83L254.198 180.643C264.493 193.479 269.388 205.24 271.624 214.479C274.587 213.615 281.726 212.25 286.636 217.158Z" fill="url(#paint32_linear_9_274)"/>
<path d="M271.299 214.333C270.921 214.333 270.577 214.075 270.483 213.69C267.727 202.303 261.918 191.029 253.218 180.183C252.929 179.822 252.986 179.292 253.347 179.001C253.708 178.711 254.237 178.769 254.527 179.131C263.382 190.172 269.3 201.666 272.114 213.294C272.223 213.745 271.946 214.199 271.495 214.308C271.431 214.326 271.365 214.333 271.299 214.333Z" fill="url(#paint33_linear_9_274)"/>
<path d="M87.6368 389.703C87.6396 389.558 87.6298 389.413 87.592 389.266C85.4112 380.618 74.5855 375.231 74.5855 375.231L70.2953 375.567C67.829 383.19 68.1453 387.864 68.5414 389.946C68.5526 390.005 68.5708 390.06 68.5862 390.117C72.1262 390.432 79.4091 390.639 87.6368 389.703Z" fill="url(#paint34_linear_9_274)"/>
<path d="M68.5876 390.116C68.7794 390.811 69.2917 391.352 69.9482 391.49C74.9817 392.549 82.9826 391.698 86.3406 391.258C87.0811 391.161 87.6228 390.475 87.6354 389.701C79.4091 390.639 72.1262 390.432 68.5876 390.116Z" fill="url(#paint35_linear_9_274)"/>
<path d="M68.5722 369.176L70.3891 377.923C70.5221 378.564 71.0148 379.044 71.6111 379.1C72.3417 379.169 73.3804 379.21 74.426 379.056C75.3638 378.918 76.0161 377.965 75.8495 376.943L74.5869 369.176H68.5722Z" fill="url(#paint36_linear_9_274)"/>
<path d="M106.214 390.005C101.476 389.872 99.0265 389.315 97.7597 388.797C97.7569 389.267 97.7598 389.747 97.7752 390.244C97.7919 390.775 98.1839 391.199 98.6682 391.196L124.68 391.028C125.51 391.023 125.995 390.06 125.636 389.299C122.225 389.579 113.538 390.211 106.214 390.005Z" fill="url(#paint37_linear_9_274)"/>
<path d="M125.634 389.298C125.604 389.232 125.576 389.165 125.531 389.102C123.234 385.892 117.383 379.499 105.821 376.726L100.275 376.551C100.275 376.551 97.806 380.845 97.7584 388.797C99.0251 389.315 101.476 389.872 106.213 390.005C113.538 390.211 122.225 389.579 125.634 389.298Z" fill="url(#paint38_linear_9_274)"/>
<path d="M98.9999 368.402C99.0881 368.81 100.242 375.035 100.688 377.448C100.794 378.022 101.241 378.442 101.773 378.472C102.722 378.525 104.255 378.532 105.572 378.174C106.283 377.98 106.76 377.257 106.708 376.452L106.088 366.607L98.9999 368.402Z" fill="url(#paint39_linear_9_274)"/>
<path d="M94.7979 253.477C94.7979 253.477 102.428 305.913 107.933 368.312C108.035 369.474 107.11 370.486 105.968 370.726C104.285 371.08 101.813 371.501 99.767 371.444C98.6738 371.413 97.7611 370.602 97.5778 369.524C95.7021 358.523 82.3177 299.477 78.8044 286.482C78.8044 286.482 74.7689 341.683 76.0595 370.321C76.0917 371.034 75.571 371.651 74.8627 371.732C73.7891 371.857 72.0702 371.951 69.8838 371.718C69.0537 371.63 68.3847 371.003 68.2657 370.175C66.9289 360.864 59.2401 305.441 59.5662 265.517C59.5844 263.266 62.2076 244.768 62.2076 244.768L94.7979 253.477Z" fill="url(#paint40_linear_9_274)"/>
<path d="M61.0612 256.5C60.2773 256.221 59.73 255.51 59.6446 254.681C58.6298 244.836 53.7181 183.792 84.7309 158.682C84.7309 158.682 86.51 154.028 101.129 165.467C115.748 176.908 107.921 188.899 104.421 205.44C100.185 225.455 92.7542 241.815 96.0422 254.132C96.269 254.982 95.8225 255.875 94.9966 256.179C83.6405 260.366 72.3277 260.505 61.0612 256.5Z" fill="#0088C2"/>
<path d="M96.8275 140.392C96.8177 141.26 84.4341 158.854 84.4341 158.854C84.4341 158.854 86.6569 163.233 97.2684 166.788L106.428 147.951L96.8275 140.392Z" fill="url(#paint41_linear_9_274)"/>
<path d="M106.578 130.311C106.578 130.311 110.985 140.435 111.28 145.748C111.575 151.063 112.72 154.51 106.578 155.581C100.435 156.65 95.2598 153.59 92.4561 148.296C92.4561 148.296 88.0637 140.14 89.0491 136.8C90.0345 133.461 106.578 130.311 106.578 130.311Z" fill="url(#paint42_linear_9_274)"/>
<path d="M94.5557 144.491L94.9057 144.337C95.3508 144.141 95.5412 143.611 95.3172 143.178C94.4508 141.504 92.7626 137.668 94.9435 136.773C97.7555 135.619 108.892 133.349 111.295 129.395C113.605 125.597 111.558 120.693 108.483 119.298C108.277 119.204 108.035 119.279 107.929 119.479L107.673 119.963C107.498 120.295 107.006 120.245 106.903 119.885C106.802 119.539 106.342 119.472 106.151 119.777C105.412 120.96 103.419 122.877 98.0859 123.861C90.5077 125.259 85.4966 128.327 85.372 133.566C85.3636 133.899 85.0094 134.084 84.7253 133.91C84.1654 133.568 83.271 133.409 82.0742 134.415C79.9928 136.165 80.8452 140.707 85.407 144.441C85.6239 144.619 85.6225 144.957 85.3874 145.11C84.5601 145.649 83.327 146.93 86.5226 148.638C89.8274 150.405 92.2951 150.261 93.2456 150.102C93.4821 150.063 93.6347 149.835 93.5829 149.6L92.5695 144.997C92.5121 144.736 92.7109 144.49 92.9768 144.49H94.5557V144.491Z" fill="url(#paint43_linear_9_274)"/>
<path d="M94.7461 145.463C94.7461 145.463 93.065 138.996 90.1661 140.809C87.2672 142.622 91.6709 148.056 94.0014 148.298L94.7461 145.463Z" fill="url(#paint44_linear_9_274)"/>
<path d="M105.831 170.778L106.685 193.714C109.11 194.548 111.418 195.198 113.617 195.682C114.993 191.254 118.021 185.819 120.5 181.777C111.39 178.556 105.831 170.778 105.831 170.778Z" fill="#0088C2"/>
<path d="M151.317 170.388C138.82 183.884 128.704 184.678 120.501 181.779C118.021 185.821 114.993 191.255 113.619 195.684C146.993 203.043 154.853 172.355 154.853 172.355L151.317 170.388Z" fill="url(#paint45_linear_9_274)"/>
<path d="M153.85 168.955C153.85 168.955 155.291 167.409 157.954 167.895C160.618 168.381 162.991 169.306 164.651 167.895C166.311 166.484 166.895 168.378 166.895 168.378L161.924 172.158L153.85 168.955Z" fill="url(#paint46_linear_9_274)"/>
<path d="M150.877 171.598C150.877 171.598 151.864 167.472 154.836 168.038C157.809 168.603 164.557 172.274 166.296 171.598C168.034 170.922 170.258 169.303 171.399 169.876L169.389 172.375C169.389 172.375 174.555 169.394 175.444 171.226L166.847 176.064C166.851 176.063 154.273 174.804 150.877 171.598Z" fill="url(#paint47_linear_9_274)"/>
<path d="M91.9578 200.796C91.9578 200.796 115.454 220.478 140.824 211.89C142.398 211.357 144.118 211.473 145.588 212.248L152.882 216.101C155.943 217.718 159.735 216.657 161.511 213.685C162.525 211.989 163.39 210.053 163.562 208.198L149.29 202.419L150.343 200.669C150.343 200.669 143.375 200.078 141.551 205.073C141.551 205.073 128.278 210.595 105.894 185.97C105.892 185.97 95.7357 194.608 91.9578 200.796Z" fill="url(#paint48_linear_9_274)"/>
<path d="M90.6938 200.592C90.6168 200.592 90.5384 200.57 90.4685 200.523C80.575 193.838 75.9209 183.047 75.8747 182.939C75.7879 182.734 75.8831 182.498 76.0875 182.412C76.2918 182.325 76.5284 182.42 76.6152 182.624C76.66 182.731 81.2273 193.308 90.9178 199.857C91.1026 199.982 91.1501 200.231 91.0256 200.416C90.9486 200.53 90.8226 200.592 90.6938 200.592Z" fill="#005C7C"/>
<path d="M105.429 185.636C105.297 185.636 105.167 185.57 105.09 185.451C105.061 185.405 102.037 180.699 96.2816 170.39C94.5109 167.22 92.1846 165.213 89.3669 164.423C84.7001 163.118 80.2027 165.621 80.1579 165.647C79.9648 165.753 79.7198 165.689 79.6092 165.495C79.5 165.302 79.5672 165.057 79.7604 164.947C79.955 164.836 84.5811 162.247 89.5768 163.646C92.6129 164.493 95.1044 166.629 96.9843 169.996C102.726 180.281 105.737 184.969 105.768 185.016C105.888 185.202 105.833 185.451 105.647 185.571C105.579 185.616 105.503 185.636 105.429 185.636Z" fill="#005C7C"/>
<defs>
<linearGradient id="paint0_linear_9_274" x1="402.371" y1="430.335" x2="122.674" y2="128.494" gradientUnits="userSpaceOnUse">
<stop stop-color="#DAE3FE"/>
<stop offset="1" stop-color="#E9EFFD"/>
</linearGradient>
<linearGradient id="paint1_linear_9_274" x1="186.815" y1="50.7077" x2="75.1251" y2="50.7077" gradientUnits="userSpaceOnUse">
<stop stop-color="#2B3582"/>
<stop offset="1" stop-color="#150E42"/>
</linearGradient>
<linearGradient id="paint2_linear_9_274" x1="41.9687" y1="99.4316" x2="292.384" y2="411.917" gradientUnits="userSpaceOnUse">
<stop stop-color="#4F52FF"/>
<stop offset="1" stop-color="#4042E2"/>
</linearGradient>
<linearGradient id="paint3_linear_9_274" x1="383.696" y1="37.3236" x2="188.742" y2="149.115" gradientUnits="userSpaceOnUse">
<stop stop-color="#4F52FF"/>
<stop offset="1" stop-color="#4042E2"/>
</linearGradient>
<linearGradient id="paint4_linear_9_274" x1="220.244" y1="50.0537" x2="108.553" y2="50.0537" gradientUnits="userSpaceOnUse">
<stop stop-color="#2B3582"/>
<stop offset="1" stop-color="#150E42"/>
</linearGradient>
<linearGradient id="paint5_linear_9_274" x1="239.308" y1="365.694" x2="222.725" y2="-125.082" gradientUnits="userSpaceOnUse">
<stop stop-color="#09005D"/>
<stop offset="1" stop-color="#1A0F91"/>
</linearGradient>
<linearGradient id="paint6_linear_9_274" x1="265.284" y1="23.3929" x2="182.361" y2="132.456" gradientUnits="userSpaceOnUse">
<stop stop-color="#09005D"/>
<stop offset="1" stop-color="#1A0F91"/>
</linearGradient>
<linearGradient id="paint7_linear_9_274" x1="274.378" y1="30.307" x2="191.455" y2="139.37" gradientUnits="userSpaceOnUse">
<stop stop-color="#09005D"/>
<stop offset="1" stop-color="#1A0F91"/>
</linearGradient>
<linearGradient id="paint8_linear_9_274" x1="200.179" y1="181.119" x2="153.032" y2="215.836" gradientUnits="userSpaceOnUse">
<stop stop-color="#FEBBBA"/>
<stop offset="1" stop-color="#FF928E"/>
</linearGradient>
<linearGradient id="paint9_linear_9_274" x1="248.192" y1="90.5697" x2="187.017" y2="229.144" gradientUnits="userSpaceOnUse">
<stop stop-color="#FF928E"/>
<stop offset="1" stop-color="#FE7062"/>
</linearGradient>
<linearGradient id="paint10_linear_9_274" x1="289.838" y1="108.954" x2="228.663" y2="247.529" gradientUnits="userSpaceOnUse">
<stop stop-color="#FF928E"/>
<stop offset="1" stop-color="#FE7062"/>
</linearGradient>
<linearGradient id="paint11_linear_9_274" x1="238.543" y1="160.788" x2="231.933" y2="140.96" gradientUnits="userSpaceOnUse">
<stop stop-color="#FEBBBA"/>
<stop offset="1" stop-color="#FF928E"/>
</linearGradient>
<linearGradient id="paint12_linear_9_274" x1="223.107" y1="136.455" x2="246.861" y2="146.78" gradientUnits="userSpaceOnUse">
<stop stop-color="#FEBBBA"/>
<stop offset="1" stop-color="#FF928E"/>
</linearGradient>
<linearGradient id="paint13_linear_9_274" x1="240.282" y1="150.689" x2="220.831" y2="130.03" gradientUnits="userSpaceOnUse">
<stop stop-color="#09005D"/>
<stop offset="1" stop-color="#1A0F91"/>
</linearGradient>
<linearGradient id="paint14_linear_9_274" x1="221.627" y1="139.859" x2="245.38" y2="150.185" gradientUnits="userSpaceOnUse">
<stop stop-color="#FEBBBA"/>
<stop offset="1" stop-color="#FF928E"/>
</linearGradient>
<linearGradient id="paint15_linear_9_274" x1="268.212" y1="390.572" x2="238.693" y2="390.572" gradientUnits="userSpaceOnUse">
<stop stop-color="#09005D"/>
<stop offset="1" stop-color="#1A0F91"/>
</linearGradient>
<linearGradient id="paint16_linear_9_274" x1="339.461" y1="362.949" x2="232.574" y2="393.409" gradientUnits="userSpaceOnUse">
<stop stop-color="#4F52FF"/>
<stop offset="1" stop-color="#4042E2"/>
</linearGradient>
<linearGradient id="paint17_linear_9_274" x1="265.487" y1="376.707" x2="257.172" y2="376.707" gradientUnits="userSpaceOnUse">
<stop stop-color="#FEBBBA"/>
<stop offset="1" stop-color="#FF928E"/>
</linearGradient>
<linearGradient id="paint18_linear_9_274" x1="327.06" y1="389.935" x2="315.748" y2="389.935" gradientUnits="userSpaceOnUse">
<stop stop-color="#09005D"/>
<stop offset="1" stop-color="#1A0F91"/>
</linearGradient>
<linearGradient id="paint19_linear_9_274" x1="279.875" y1="356.757" x2="346.491" y2="400.127" gradientUnits="userSpaceOnUse">
<stop stop-color="#4F52FF"/>
<stop offset="1" stop-color="#4042E2"/>
</linearGradient>
<linearGradient id="paint20_linear_9_274" x1="318.347" y1="369.774" x2="308.41" y2="369.774" gradientUnits="userSpaceOnUse">
<stop stop-color="#FEBBBA"/>
<stop offset="1" stop-color="#FF928E"/>
</linearGradient>
<linearGradient id="paint21_linear_9_274" x1="273.808" y1="228.614" x2="284.338" y2="371.794" gradientUnits="userSpaceOnUse">
<stop stop-color="#09005D"/>
<stop offset="1" stop-color="#1A0F91"/>
</linearGradient>
<linearGradient id="paint22_linear_9_274" x1="271.887" y1="309.986" x2="271.887" y2="279.642" gradientUnits="userSpaceOnUse">
<stop stop-color="#4F52FF"/>
<stop offset="1" stop-color="#4042E2"/>
</linearGradient>
<linearGradient id="paint23_linear_9_274" x1="661.261" y1="-584.114" x2="650.007" y2="-560.995" gradientUnits="userSpaceOnUse">
<stop stop-color="#4F52FF"/>
<stop offset="1" stop-color="#4042E2"/>
</linearGradient>
<linearGradient id="paint24_linear_9_274" x1="658.915" y1="-585.281" x2="647.662" y2="-562.161" gradientUnits="userSpaceOnUse">
<stop stop-color="#4F52FF"/>
<stop offset="1" stop-color="#4042E2"/>
</linearGradient>
<linearGradient id="paint25_linear_9_274" x1="682.115" y1="-573.966" x2="670.861" y2="-550.847" gradientUnits="userSpaceOnUse">
<stop stop-color="#4F52FF"/>
<stop offset="1" stop-color="#4042E2"/>
</linearGradient>
<linearGradient id="paint26_linear_9_274" x1="679.625" y1="-575.202" x2="668.371" y2="-552.082" gradientUnits="userSpaceOnUse">
<stop stop-color="#4F52FF"/>
<stop offset="1" stop-color="#4042E2"/>
</linearGradient>
<linearGradient id="paint27_linear_9_274" x1="666.87" y1="-581.388" x2="655.617" y2="-558.269" gradientUnits="userSpaceOnUse">
<stop stop-color="#4F52FF"/>
<stop offset="1" stop-color="#4042E2"/>
</linearGradient>
<linearGradient id="paint28_linear_9_274" x1="269.868" y1="240.142" x2="271.83" y2="335.331" gradientUnits="userSpaceOnUse">
<stop stop-color="#4F52FF"/>
<stop offset="1" stop-color="#4042E2"/>
</linearGradient>
<linearGradient id="paint29_linear_9_274" x1="343.682" y1="187.216" x2="293.981" y2="249.33" gradientUnits="userSpaceOnUse">
<stop stop-color="#09005D"/>
<stop offset="1" stop-color="#1A0F91"/>
</linearGradient>
<linearGradient id="paint30_linear_9_274" x1="323.631" y1="195.1" x2="279.185" y2="265.579" gradientUnits="userSpaceOnUse">
<stop stop-color="#4F52FF"/>
<stop offset="1" stop-color="#4042E2"/>
</linearGradient>
<linearGradient id="paint31_linear_9_274" x1="303.655" y1="125.885" x2="267.151" y2="247.544" gradientUnits="userSpaceOnUse">
<stop stop-color="#FEBBBA"/>
<stop offset="1" stop-color="#FF928E"/>
</linearGradient>
<linearGradient id="paint32_linear_9_274" x1="306.804" y1="116.445" x2="245.629" y2="255.019" gradientUnits="userSpaceOnUse">
<stop stop-color="#FF928E"/>
<stop offset="1" stop-color="#FE7062"/>
</linearGradient>
<linearGradient id="paint33_linear_9_274" x1="368.369" y1="70.6437" x2="260.368" y2="199.171" gradientUnits="userSpaceOnUse">
<stop stop-color="#FF928E"/>
<stop offset="1" stop-color="#FE7062"/>
</linearGradient>
<linearGradient id="paint34_linear_9_274" x1="68.2726" y1="382.806" x2="87.6371" y2="382.806" gradientUnits="userSpaceOnUse">
<stop stop-color="#09005D"/>
<stop offset="1" stop-color="#1A0F91"/>
</linearGradient>
<linearGradient id="paint35_linear_9_274" x1="116.751" y1="359.957" x2="46.2923" y2="415.271" gradientUnits="userSpaceOnUse">
<stop stop-color="#4F52FF"/>
<stop offset="1" stop-color="#4042E2"/>
</linearGradient>
<linearGradient id="paint36_linear_9_274" x1="73.6577" y1="360.756" x2="69.9574" y2="393.044" gradientUnits="userSpaceOnUse">
<stop stop-color="#FEBBBA"/>
<stop offset="1" stop-color="#FF928E"/>
</linearGradient>
<linearGradient id="paint37_linear_9_274" x1="129.265" y1="375.875" x2="58.8073" y2="431.19" gradientUnits="userSpaceOnUse">
<stop stop-color="#4F52FF"/>
<stop offset="1" stop-color="#4042E2"/>
</linearGradient>
<linearGradient id="paint38_linear_9_274" x1="97.7596" y1="383.298" x2="125.635" y2="383.298" gradientUnits="userSpaceOnUse">
<stop stop-color="#09005D"/>
<stop offset="1" stop-color="#1A0F91"/>
</linearGradient>
<linearGradient id="paint39_linear_9_274" x1="103.284" y1="364.166" x2="101.622" y2="396.623" gradientUnits="userSpaceOnUse">
<stop stop-color="#FEBBBA"/>
<stop offset="1" stop-color="#FF928E"/>
</linearGradient>
<linearGradient id="paint40_linear_9_274" x1="55.891" y1="407.603" x2="102.223" y2="247.575" gradientUnits="userSpaceOnUse">
<stop stop-color="#09005D"/>
<stop offset="1" stop-color="#1A0F91"/>
</linearGradient>
<linearGradient id="paint41_linear_9_274" x1="88.4141" y1="172.569" x2="97.0077" y2="149.106" gradientUnits="userSpaceOnUse">
<stop stop-color="#FEBBBA"/>
<stop offset="1" stop-color="#FF928E"/>
</linearGradient>
<linearGradient id="paint42_linear_9_274" x1="106.027" y1="155.601" x2="94.238" y2="126.611" gradientUnits="userSpaceOnUse">
<stop stop-color="#FEBBBA"/>
<stop offset="1" stop-color="#FF928E"/>
</linearGradient>
<linearGradient id="paint43_linear_9_274" x1="145.021" y1="-22.6006" x2="110.713" y2="86.735" gradientUnits="userSpaceOnUse">
<stop stop-color="#09005D"/>
<stop offset="1" stop-color="#1A0F91"/>
</linearGradient>
<linearGradient id="paint44_linear_9_274" x1="97.9465" y1="158.887" x2="86.1575" y2="129.897" gradientUnits="userSpaceOnUse">
<stop stop-color="#FEBBBA"/>
<stop offset="1" stop-color="#FF928E"/>
</linearGradient>
<linearGradient id="paint45_linear_9_274" x1="167.816" y1="168.461" x2="113.77" y2="195.341" gradientUnits="userSpaceOnUse">
<stop stop-color="#FEBBBA"/>
<stop offset="1" stop-color="#FF928E"/>
</linearGradient>
<linearGradient id="paint46_linear_9_274" x1="167.025" y1="161.717" x2="148.536" y2="181.024" gradientUnits="userSpaceOnUse">
<stop stop-color="#FEBBBA"/>
<stop offset="1" stop-color="#FF928E"/>
</linearGradient>
<linearGradient id="paint47_linear_9_274" x1="168.073" y1="168.142" x2="114.027" y2="195.022" gradientUnits="userSpaceOnUse">
<stop stop-color="#FEBBBA"/>
<stop offset="1" stop-color="#FF928E"/>
</linearGradient>
<linearGradient id="paint48_linear_9_274" x1="156.908" y1="219.727" x2="82.3679" y2="181.508" gradientUnits="userSpaceOnUse">
<stop stop-color="#FEBBBA"/>
<stop offset="1" stop-color="#FF928E"/>
</linearGradient>
</defs>
</svg>
